<svg width="198" height="155" viewBox="0 0 198 155" fill="none" xmlns="http://www.w3.org/2000/svg">
<path d="M206.589 16.8107C241.205 46.8105 236.705 121.015 172.151 170.453C100.764 206.593 42.1506 188.787 16.3318 144.177C-1.51349 82.0418 66.033 109.373 110.644 83.5542C155.255 57.7354 160.886 -8.49753 206.589 16.8107Z" fill="#CDC0F6"/>
<path d="M170.189 108.127C161.529 135.905 126.884 138.76 110.644 136.715C107.998 134.599 109.343 130.844 127.308 128.031C145.273 125.217 153.039 115.671 155.75 111.839C164.172 99.0268 178.849 80.348 170.189 108.127Z" fill="#D8CCFE"/>
<circle cx="170.065" cy="79.0651" r="4.79208" transform="rotate(-161.498 170.065 79.0651)" fill="#D8CCFE"/>
</svg>
