<svg width="20" height="20" viewBox="0 0 20 20" fill="none" xmlns="http://www.w3.org/2000/svg">
<g clip-path="url(#clip0_22_20)">
<path d="M7.44666 16.9C7.44666 17.1472 7.37335 17.3889 7.236 17.5945C7.09865 17.8 6.90342 17.9602 6.67502 18.0548C6.44661 18.1495 6.19528 18.1742 5.9528 18.126C5.71032 18.0777 5.4876 17.9587 5.31278 17.7839C5.13796 17.6091 5.01891 17.3863 4.97068 17.1439C4.92245 16.9014 4.9472 16.65 5.04181 16.4216C5.13642 16.1932 5.29664 15.998 5.5022 15.8607C5.70776 15.7233 5.94944 15.65 6.19666 15.65C6.52818 15.65 6.84613 15.7817 7.08055 16.0161C7.31497 16.2505 7.44666 16.5685 7.44666 16.9ZM14.3217 15.65C14.0744 15.65 13.8328 15.7233 13.6272 15.8607C13.4216 15.998 13.2614 16.1932 13.1668 16.4216C13.0722 16.65 13.0475 16.9014 13.0957 17.1439C13.1439 17.3863 13.263 17.6091 13.4378 17.7839C13.6126 17.9587 13.8353 18.0777 14.0778 18.126C14.3203 18.1742 14.5716 18.1495 14.8 18.0548C15.0284 17.9602 15.2236 17.8 15.361 17.5945C15.4984 17.3889 15.5717 17.1472 15.5717 16.9C15.5717 16.5685 15.44 16.2505 15.2055 16.0161C14.9711 15.7817 14.6532 15.65 14.3217 15.65ZM18.0443 5.83359L15.8154 13.0766C15.6987 13.4605 15.4613 13.7966 15.1384 14.035C14.8156 14.2734 14.4245 14.4014 14.0232 14.4H6.51463C6.10758 14.3985 5.71198 14.2651 5.38706 14.0199C5.06214 13.7747 4.8254 13.4309 4.71229 13.0398L1.88573 3.14999H0.571663C0.405903 3.14999 0.246931 3.08415 0.129721 2.96694C0.0125109 2.84973 -0.0533371 2.69075 -0.0533371 2.52499C-0.0533371 2.35923 0.0125109 2.20026 0.129721 2.08305C0.246931 1.96584 0.405903 1.89999 0.571663 1.89999H1.88573C2.15714 1.90089 2.42096 1.98967 2.6377 2.15304C2.85445 2.31641 3.01245 2.54557 3.08807 2.80624L3.72166 5.02499H17.4467C17.5445 5.02496 17.6409 5.04788 17.7283 5.09191C17.8156 5.13594 17.8914 5.19985 17.9495 5.2785C18.0076 5.35715 18.0465 5.44835 18.063 5.54476C18.0794 5.64117 18.073 5.7401 18.0443 5.83359ZM16.6006 6.27499H4.07869L5.91385 12.6969C5.95119 12.8274 6.03001 12.9422 6.1384 13.024C6.2468 13.1057 6.37886 13.15 6.51463 13.15H14.0232C14.157 13.15 14.2872 13.1072 14.3948 13.0277C14.5023 12.9483 14.5816 12.8364 14.6209 12.7086L16.6006 6.27499Z" fill="white"/>
</g>
<defs>
<clipPath id="clip0_22_20">
<rect width="20" height="20" fill="white"/>
</clipPath>
</defs>
</svg>
