<svg width="36" height="36" viewBox="0 0 36 36" fill="none" xmlns="http://www.w3.org/2000/svg">
<g filter="url(#filter0_i_24_22)">
<rect width="36" height="36" rx="18" fill="white"/>
<path fill-rule="evenodd" clip-rule="evenodd" d="M8 11.125C8 10.7798 8.27982 10.5 8.625 10.5H10.5C10.7868 10.5 11.0368 10.6952 11.1063 10.9734L11.613 13H26.125C26.3175 13 26.4992 13.0887 26.6176 13.2404C26.7361 13.3921 26.778 13.5899 26.7313 13.7766L24.8563 21.2766C24.7868 21.5548 24.5368 21.75 24.25 21.75H13C12.7132 21.75 12.4632 21.5548 12.3937 21.2766L10.012 11.75H8.625C8.27982 11.75 8 11.4702 8 11.125ZM11.9255 14.25L13.488 20.5H23.762L25.3245 14.25H11.9255ZM14.25 24.25C13.5596 24.25 13 24.8096 13 25.5C13 26.1904 13.5596 26.75 14.25 26.75C14.9404 26.75 15.5 26.1904 15.5 25.5C15.5 24.8096 14.9404 24.25 14.25 24.25ZM11.75 25.5C11.75 24.1193 12.8693 23 14.25 23C15.6307 23 16.75 24.1193 16.75 25.5C16.75 26.8807 15.6307 28 14.25 28C12.8693 28 11.75 26.8807 11.75 25.5ZM23 24.25C22.3096 24.25 21.75 24.8096 21.75 25.5C21.75 26.1904 22.3096 26.75 23 26.75C23.6904 26.75 24.25 26.1904 24.25 25.5C24.25 24.8096 23.6904 24.25 23 24.25ZM20.5 25.5C20.5 24.1193 21.6193 23 23 23C24.3807 23 25.5 24.1193 25.5 25.5C25.5 26.8807 24.3807 28 23 28C21.6193 28 20.5 26.8807 20.5 25.5Z" fill="black"/>
</g>
<defs>
<filter id="filter0_i_24_22" x="0" y="-3" width="36" height="39" filterUnits="userSpaceOnUse" color-interpolation-filters="sRGB">
<feFlood flood-opacity="0" result="BackgroundImageFix"/>
<feBlend mode="normal" in="SourceGraphic" in2="BackgroundImageFix" result="shape"/>
<feColorMatrix in="SourceAlpha" type="matrix" values="0 0 0 0 0 0 0 0 0 0 0 0 0 0 0 0 0 0 127 0" result="hardAlpha"/>
<feOffset dy="-3"/>
<feGaussianBlur stdDeviation="2.5"/>
<feComposite in2="hardAlpha" operator="arithmetic" k2="-1" k3="1"/>
<feColorMatrix type="matrix" values="0 0 0 0 0 0 0 0 0 0 0 0 0 0 0 0 0 0 0.2 0"/>
<feBlend mode="normal" in2="shape" result="effect1_innerShadow_24_22"/>
</filter>
</defs>
</svg>
