<svg width="36" height="36" viewBox="0 0 36 36" fill="none" xmlns="http://www.w3.org/2000/svg">
<g filter="url(#filter0_i_24_21)">
<rect width="36" height="36" rx="18" fill="white"/>
<mask id="path-2-inside-1_24_21" fill="white">
<path d="M17.962 26C15.9307 26 14.1603 25.3367 12.651 24.01C11.1417 22.6833 10.268 21.0133 10.03 19H11.041C11.313 20.72 12.0967 22.15 13.392 23.29C14.6873 24.43 16.2107 25 17.962 25C19.912 25 21.566 24.321 22.924 22.963C24.282 21.605 24.9613 19.9507 24.962 18C24.9627 16.0493 24.2833 14.395 22.924 13.037C21.5647 11.679 19.9107 11 17.962 11C16.9273 11 15.9547 11.2187 15.044 11.656C14.1333 12.0933 13.33 12.6953 12.634 13.462H15.115V14.462H10.962V10.308H11.962V12.696C12.7353 11.8473 13.6413 11.186 14.68 10.712C15.7187 10.238 16.8127 10.0007 17.962 10C19.0707 10 20.11 10.2087 21.08 10.626C22.05 11.0433 22.8973 11.6143 23.622 12.339C24.3467 13.0637 24.918 13.9113 25.336 14.882C25.754 15.8527 25.9627 16.892 25.962 18C25.9613 19.108 25.7527 20.1473 25.336 21.118C24.9193 22.0887 24.348 22.9363 23.622 23.661C22.896 24.3857 22.0487 24.9567 21.08 25.374C20.1113 25.7913 19.072 26 17.962 26ZM21.165 21.854L17.519 18.208V13H18.519V17.792L21.873 21.146L21.165 21.854Z"/>
</mask>
<path d="M17.962 26C15.9307 26 14.1603 25.3367 12.651 24.01C11.1417 22.6833 10.268 21.0133 10.03 19H11.041C11.313 20.72 12.0967 22.15 13.392 23.29C14.6873 24.43 16.2107 25 17.962 25C19.912 25 21.566 24.321 22.924 22.963C24.282 21.605 24.9613 19.9507 24.962 18C24.9627 16.0493 24.2833 14.395 22.924 13.037C21.5647 11.679 19.9107 11 17.962 11C16.9273 11 15.9547 11.2187 15.044 11.656C14.1333 12.0933 13.33 12.6953 12.634 13.462H15.115V14.462H10.962V10.308H11.962V12.696C12.7353 11.8473 13.6413 11.186 14.68 10.712C15.7187 10.238 16.8127 10.0007 17.962 10C19.0707 10 20.11 10.2087 21.08 10.626C22.05 11.0433 22.8973 11.6143 23.622 12.339C24.3467 13.0637 24.918 13.9113 25.336 14.882C25.754 15.8527 25.9627 16.892 25.962 18C25.9613 19.108 25.7527 20.1473 25.336 21.118C24.9193 22.0887 24.348 22.9363 23.622 23.661C22.896 24.3857 22.0487 24.9567 21.08 25.374C20.1113 25.7913 19.072 26 17.962 26ZM21.165 21.854L17.519 18.208V13H18.519V17.792L21.873 21.146L21.165 21.854Z" fill="black"/>
<path d="M17.962 26V21V26ZM10.03 19V14H4.40413L5.06457 19.587L10.03 19ZM11.041 19L15.9796 18.219L15.3124 14H11.041V19ZM12.634 13.462L8.93197 10.1012L1.34182 18.462H12.634V13.462ZM15.115 13.462H20.115V8.462H15.115V13.462ZM15.115 14.462V19.462H20.115V14.462H15.115ZM10.962 14.462H5.962V19.462H10.962V14.462ZM10.962 10.308V5.308H5.962V10.308H10.962ZM11.962 10.308H16.962V5.308H11.962V10.308ZM11.962 12.696H6.962V25.6065L15.6578 16.0637L11.962 12.696ZM17.962 10L17.962 5L17.9591 5L17.962 10ZM21.165 21.854L17.6295 25.3895L21.165 28.9251L24.7005 25.3895L21.165 21.854ZM17.519 18.208H12.519V20.2791L13.9835 21.7435L17.519 18.208ZM17.519 13V8H12.519V13H17.519ZM18.519 13H23.519V8H18.519V13ZM18.519 17.792H13.519V19.8631L14.9835 21.3275L18.519 17.792ZM21.873 21.146L25.4085 24.6815L28.9441 21.146L25.4085 17.6105L21.873 21.146ZM17.962 21C17.1311 21 16.5379 20.7695 15.952 20.2545L9.35003 27.7655C11.7828 29.9038 14.7302 31 17.962 31V21ZM15.952 20.2545C15.3785 19.7504 15.09 19.213 14.9954 18.413L5.06457 19.587C5.446 22.8136 6.90486 25.6162 9.35003 27.7655L15.952 20.2545ZM10.03 24H11.041V14H10.03V24ZM6.10237 19.781C6.55458 22.6405 7.90975 25.1258 10.0887 27.0434L16.6953 19.5366C16.2836 19.1742 16.0714 18.7995 15.9796 18.219L6.10237 19.781ZM10.0887 27.0434C12.3118 29 15.0146 30 17.962 30V20C17.4067 20 17.0629 19.86 16.6953 19.5366L10.0887 27.0434ZM17.962 30C21.2152 30 24.1478 28.8103 26.4595 26.4985L19.3885 19.4275C18.9842 19.8317 18.6088 20 17.962 20V30ZM26.4595 26.4985C28.7712 24.1869 29.9609 21.2545 29.962 18.0017L19.962 17.9983C19.9618 18.6468 19.7928 19.0231 19.3885 19.4275L26.4595 26.4985ZM29.962 18.0017C29.9631 14.7462 28.7722 11.8119 26.4578 9.49973L19.3902 16.5743C19.7945 16.9781 19.9622 17.3525 19.962 17.9983L29.962 18.0017ZM26.4578 9.49973C24.1461 7.19032 21.2148 6 17.962 6L17.962 16C18.6065 16 18.9832 16.1677 19.3902 16.5743L26.4578 9.49973ZM17.962 6C16.1967 6 14.4823 6.37908 12.8795 7.1488L17.2085 16.1632C17.427 16.0583 17.6579 16 17.962 16V6ZM12.8795 7.1488C11.3725 7.87252 10.0506 8.86896 8.93197 10.1012L16.336 16.8228C16.6094 16.5217 16.8942 16.3142 17.2085 16.1632L12.8795 7.1488ZM12.634 18.462H15.115V8.462H12.634V18.462ZM10.115 13.462V14.462H20.115V13.462H10.115ZM15.115 9.462H10.962V19.462H15.115V9.462ZM15.962 14.462V10.308H5.962V14.462H15.962ZM10.962 15.308H11.962V5.308H10.962V15.308ZM6.962 10.308V12.696H16.962V10.308H6.962ZM15.6578 16.0637C15.979 15.7111 16.3349 15.4528 16.7558 15.2607L12.6042 6.16327C10.9478 6.91918 9.49164 7.98354 8.26624 9.3283L15.6578 16.0637ZM16.7558 15.2607C17.1393 15.0857 17.5259 15.0003 17.9649 15L17.9591 5C16.0994 5.00108 14.2981 5.39026 12.6042 6.16327L16.7558 15.2607ZM17.962 15C18.4257 15 18.7891 15.0835 19.1039 15.2189L23.0561 6.03306C21.4309 5.33384 19.7156 5 17.962 5V15ZM19.1039 15.2189C19.5098 15.3936 19.8236 15.6117 20.0865 15.8745L27.1575 8.80347C25.9711 7.61701 24.5902 6.69309 23.0561 6.03306L19.1039 15.2189ZM20.0865 15.8745C20.3494 16.1374 20.5682 16.4519 20.7437 16.8596L29.9283 12.9044C29.2678 11.3707 28.344 9.98989 27.1575 8.80347L20.0865 15.8745ZM20.7437 16.8596C20.8793 17.1746 20.9623 17.5365 20.962 17.997L30.962 18.003C30.9631 16.2475 30.6287 14.5308 29.9283 12.9044L20.7437 16.8596ZM20.962 17.997C20.9617 18.4616 20.878 18.8276 20.7414 19.1457L29.9306 23.0903C30.6273 21.4671 30.9609 19.7544 30.962 18.003L20.962 17.997ZM20.7414 19.1457C20.5683 19.5491 20.3516 19.8608 20.0897 20.1222L27.1543 27.1998C28.3444 26.0119 29.2704 24.6282 29.9306 23.0903L20.7414 19.1457ZM20.0897 20.1222C19.8232 20.3882 19.5072 20.6073 19.1016 20.782L23.0584 29.966C24.5902 29.306 25.9688 28.3831 27.1543 27.1998L20.0897 20.1222ZM19.1016 20.782C18.7903 20.9162 18.4279 21 17.962 21L17.962 31C19.7161 31 21.4324 30.6665 23.0584 29.966L19.1016 20.782ZM24.7005 18.3185L21.0545 14.6725L13.9835 21.7435L17.6295 25.3895L24.7005 18.3185ZM22.519 18.208V13H12.519V18.208H22.519ZM17.519 18H18.519V8H17.519V18ZM13.519 13V17.792H23.519V13H13.519ZM14.9835 21.3275L18.3375 24.6815L25.4085 17.6105L22.0545 14.2565L14.9835 21.3275ZM18.3375 17.6105L17.6295 18.3185L24.7005 25.3895L25.4085 24.6815L18.3375 17.6105Z" fill="black" mask="url(#path-2-inside-1_24_21)"/>
</g>
<defs>
<filter id="filter0_i_24_21" x="0" y="-3" width="36" height="39" filterUnits="userSpaceOnUse" color-interpolation-filters="sRGB">
<feFlood flood-opacity="0" result="BackgroundImageFix"/>
<feBlend mode="normal" in="SourceGraphic" in2="BackgroundImageFix" result="shape"/>
<feColorMatrix in="SourceAlpha" type="matrix" values="0 0 0 0 0 0 0 0 0 0 0 0 0 0 0 0 0 0 127 0" result="hardAlpha"/>
<feOffset dy="-3"/>
<feGaussianBlur stdDeviation="2.5"/>
<feComposite in2="hardAlpha" operator="arithmetic" k2="-1" k3="1"/>
<feColorMatrix type="matrix" values="0 0 0 0 0 0 0 0 0 0 0 0 0 0 0 0 0 0 0.2 0"/>
<feBlend mode="normal" in2="shape" result="effect1_innerShadow_24_21"/>
</filter>
</defs>
</svg>
