<svg width="125" height="81" viewBox="0 0 125 81" fill="none" xmlns="http://www.w3.org/2000/svg">
<g filter="url(#filter0_d_305_2077)">
<path d="M20.6992 66.2247C23.1077 65.6048 25.0769 64.7149 26.6069 63.5548C28.1337 62.3821 29.179 61.0105 29.7429 59.4402C30.3069 57.8699 30.3552 56.1769 29.8879 54.361L29.883 54.3421C29.5066 52.8794 28.8843 51.7152 28.0161 50.8495C27.1448 49.9713 25.9989 49.3586 24.5785 49.0116C23.1581 48.6645 21.4299 48.558 19.3939 48.6921L16.4582 48.8829C14.924 48.9819 13.7676 48.903 12.9889 48.6463C12.2103 48.3895 11.7268 47.8955 11.5386 47.1641L11.5338 47.1452C11.4007 46.6282 11.4336 46.129 11.6324 45.6476C11.8405 45.1503 12.2101 44.7056 12.7411 44.3135C13.2721 43.9214 13.9601 43.6166 14.8049 43.3992C15.6372 43.185 16.4057 43.115 17.1105 43.1891C17.8152 43.2632 18.4182 43.4643 18.9195 43.7924C19.4207 44.1205 19.7871 44.5775 20.0185 45.1633L20.091 45.3665L26.5409 43.7066L26.4198 43.3143C25.919 41.6818 25.0699 40.3676 23.8724 39.3716C22.6876 38.3724 21.2084 37.7446 19.4349 37.4885C17.6582 37.2197 15.6287 37.3789 13.3463 37.9663C11.2656 38.5018 9.49816 39.3398 8.04384 40.4804C6.59888 41.6052 5.57696 42.9371 4.97807 44.4761C4.37594 46.0024 4.30042 47.642 4.75149 49.3948L4.75636 49.4137C5.29506 51.5069 6.43463 53.0355 8.17507 53.9993C9.92489 54.9473 12.214 55.3263 15.0423 55.1362L17.9829 54.9643C19.6622 54.8548 20.8912 54.9284 21.6699 55.1852C22.4453 55.4293 22.932 55.936 23.1299 56.7052L23.1348 56.7241C23.2808 57.2916 23.2262 57.8367 22.9708 58.3596C22.7155 58.8824 22.2861 59.3559 21.6827 59.7801C21.0886 60.1885 20.3313 60.5111 19.4108 60.748C18.5281 60.9751 17.6965 61.0614 16.9161 61.0068C16.1324 60.9396 15.4521 60.7516 14.8752 60.4429C14.3077 60.1184 13.8846 59.676 13.606 59.1158L13.5195 58.9364L7.0695 60.5963L7.17603 60.9319C7.73735 62.6429 8.64197 63.9899 9.88989 64.9729C11.1504 65.9527 12.6973 66.5563 14.5306 66.7836C16.3732 66.9951 18.4294 66.8088 20.6992 66.2247Z" fill="#263948"/>
</g>
<g filter="url(#filter1_d_305_2077)">
<path d="M31.5942 63.2825L38.7102 64.1438L40.0738 52.8784L51.2229 54.228L49.8593 65.4934L56.9753 66.3548L60.3621 38.3754L53.2461 37.5141L51.9153 48.508L40.7662 47.1584L42.097 36.1645L34.981 35.3031L31.5942 63.2825Z" fill="#263948"/>
</g>
<g filter="url(#filter2_d_305_2077)">
<path d="M77.4181 66.5051C80.2704 66.1246 82.6444 65.2103 84.5398 63.7621C86.4482 62.3121 87.8136 60.4354 88.6361 58.132C89.4697 55.8139 89.6886 53.1706 89.2926 50.2021L89.2874 50.1634C88.8915 47.1949 87.9883 44.7078 86.5779 42.7022C85.1805 40.6949 83.3709 39.2417 81.1492 38.3427C78.9274 37.4436 76.3969 37.1835 73.5574 37.5622C70.7567 37.9358 68.4022 38.8476 66.4938 40.2975C64.5854 41.7475 63.2071 43.6259 62.3588 45.9328C61.5235 48.238 61.3038 50.8748 61.6997 53.8433L61.7049 53.882C62.1009 56.8505 63.0049 59.344 64.417 61.3625C65.8274 63.3681 67.6434 64.8205 69.8651 65.7195C72.0868 66.6185 74.6045 66.8804 77.4181 66.5051ZM76.6331 60.6197C75.3166 60.7953 74.1214 60.6001 73.0476 60.034C71.9737 59.4679 71.0805 58.5821 70.368 57.3766C69.6667 56.1566 69.199 54.6689 68.9648 52.9136L68.9597 52.8749C68.7238 51.1067 68.7852 49.5484 69.144 48.2001C69.5156 46.8501 70.1462 45.7676 71.0359 44.9527C71.9367 44.1232 73.0389 43.6215 74.3425 43.4476C75.6848 43.2686 76.8928 43.4621 77.9667 44.0282C79.0406 44.5943 79.9273 45.481 80.6269 46.6881C81.3394 47.8936 81.8127 49.3739 82.0469 51.1292L82.052 51.1679C82.2844 52.9103 82.2221 54.4621 81.8651 55.8233C81.5064 57.1717 80.8839 58.2662 79.9977 59.1069C79.1227 59.933 78.0012 60.4372 76.6331 60.6197Z" fill="#263948"/>
</g>
<g filter="url(#filter3_d_305_2077)">
<path d="M95.7266 59.9973L103.185 63.8575C105.047 64.8211 106.852 65.3005 108.599 65.2957C110.352 65.2794 111.945 64.8066 113.379 63.8774C114.831 62.9425 116.017 61.5847 116.939 59.8038L116.957 59.7691C117.885 57.9767 118.308 56.2239 118.227 54.5106C118.164 52.7917 117.633 51.2119 116.633 49.7712C115.64 48.3189 114.213 47.111 112.351 46.1474L104.892 42.2872L102.361 47.1787L108.293 50.249C109.635 50.9432 110.508 51.8202 110.912 52.8799C111.328 53.9456 111.198 55.1318 110.522 56.4386L110.504 56.4733C109.833 57.7684 108.94 58.5596 107.824 58.8469C106.719 59.1401 105.496 58.9396 104.155 58.2454L98.2223 55.1752L95.7266 59.9973ZM88.7292 65.6565L95.0952 68.9511L108.049 43.9211L101.683 40.6264L88.7292 65.6565Z" fill="#263948"/>
</g>
<path d="M32.3633 31.2227C32.2461 31.4102 32.1641 31.6211 32.1172 31.8555C32.0703 32.0898 31.9883 32.3008 31.8711 32.4883C31.7773 32.6758 31.6719 32.8516 31.5547 33.0156C31.4375 33.1797 31.3555 33.3789 31.3086 33.6133C31.2852 33.7773 31.2852 33.9648 31.3086 34.1758C31.3555 34.3867 31.3555 34.5625 31.3086 34.7031C31.2852 34.7969 31.2383 34.8789 31.168 34.9492C31.0977 35.043 31.0977 35.1484 31.168 35.2656C30.7461 35.4531 30.3711 35.5234 30.043 35.4766C29.7148 35.4297 29.4336 35.3242 29.1992 35.1602C29.082 35.1836 28.9883 35.1719 28.918 35.125C28.8242 35.0781 28.7305 35.0195 28.6367 34.9492C28.5195 34.9023 28.4727 34.8203 28.4961 34.7031C28.4961 34.5859 28.4727 34.4805 28.4258 34.3867C28.3086 34.0352 28.2266 33.8008 28.1797 33.6836C28.1094 33.543 28.0859 33.3906 28.1094 33.2266C28.1562 32.9219 28.2734 32.6758 28.4609 32.4883C28.625 32.2773 28.7656 32.0547 28.8828 31.8203C29.0234 31.4688 29.1523 31.1641 29.2695 30.9062C29.4102 30.6484 29.5625 30.4023 29.7266 30.168C29.75 30.0742 29.7852 29.9922 29.832 29.9219C29.9023 29.8516 29.9609 29.7812 30.0078 29.7109C30.0547 29.5938 30.1016 29.5 30.1484 29.4297C30.1953 29.3359 30.2422 29.2422 30.2891 29.1484C30.3594 29.0312 30.418 28.9023 30.4648 28.7617C30.5352 28.6211 30.6055 28.4922 30.6758 28.375C30.7227 28.2578 30.7812 28.1406 30.8516 28.0234C30.9219 27.9062 30.9922 27.7891 31.0625 27.6719C31.0859 27.6016 31.1094 27.5312 31.1328 27.4609C31.1562 27.3906 31.2031 27.332 31.2734 27.2852C31.2734 27.1445 31.2969 27.0508 31.3438 27.0039C31.3906 26.9336 31.4141 26.8164 31.4141 26.6523C31.5312 26.5117 31.6367 26.3711 31.7305 26.2305C31.8242 26.0664 31.9297 25.9141 32.0469 25.7734C32.3047 25.3516 32.5039 25.0352 32.6445 24.8242C32.7852 24.5898 32.9141 24.3438 33.0312 24.0859C33.0312 23.9688 33.0547 23.875 33.1016 23.8047C33.1484 23.7109 33.1953 23.6172 33.2422 23.5234C33.2891 23.4531 33.3242 23.3711 33.3477 23.2773C33.3711 23.1836 33.418 23.1133 33.4883 23.0664C33.6523 22.5977 33.793 22.2227 33.9102 21.9414C34.0273 21.6602 34.1445 21.3906 34.2617 21.1328C34.332 20.9688 34.3906 20.8633 34.4375 20.8164C34.5078 20.7461 34.5547 20.6875 34.5781 20.6406C34.7188 20.2891 34.8359 20.0312 34.9297 19.8672C35.0234 19.6797 35.0938 19.4922 35.1406 19.3047C35.2578 19.0469 35.3867 18.8125 35.5273 18.6016C35.668 18.3906 35.7734 18.1211 35.8438 17.793C35.9375 17.7227 35.9961 17.6406 36.0195 17.5469C36.0664 17.4297 36.1367 17.3359 36.2305 17.2656C36.2773 17.125 36.3359 16.9844 36.4062 16.8438C36.4766 16.7031 36.5469 16.5625 36.6172 16.4219C36.6875 16.3281 36.7461 16.2344 36.793 16.1406C36.8398 16.0469 36.8867 15.9414 36.9336 15.8242C37.0977 15.5195 37.2734 15.2383 37.4609 14.9805C37.6484 14.6992 37.8125 14.418 37.9531 14.1367C38.0938 13.7852 38.1875 13.5625 38.2344 13.4688C38.3047 13.375 38.3516 13.2695 38.375 13.1523C38.0703 13.2461 37.7539 13.3633 37.4258 13.5039C37.0977 13.6211 36.7227 13.6563 36.3008 13.6094C36.043 13.5625 35.8672 13.5625 35.7734 13.6094C35.7031 13.6563 35.6211 13.6797 35.5273 13.6797C35.4102 13.7031 35.3047 13.7148 35.2109 13.7148C35.1406 13.7148 35.0586 13.7383 34.9648 13.7852C34.5664 13.9258 34.2852 14.0312 34.1211 14.1016C33.9805 14.1719 33.8281 14.1602 33.6641 14.0664C33.6875 13.8789 33.7109 13.6797 33.7344 13.4688C33.7578 13.2578 33.8281 13.082 33.9453 12.9414C34.5078 12.4727 35.1172 12.0742 35.7734 11.7461C36.4531 11.3945 37.1562 11.0547 37.8828 10.7266C38.1406 10.6562 38.375 10.5977 38.5859 10.5508C38.7969 10.4805 38.9961 10.3984 39.1836 10.3047C39.3711 9.90625 39.5703 9.53125 39.7812 9.17969C39.9922 8.82812 40.2383 8.51172 40.5195 8.23047C40.7539 8.08984 40.8594 8.03125 40.8359 8.05469C40.8125 8.07812 40.8594 8.08984 40.9766 8.08984C41.0703 8.13672 41.1289 8.19531 41.1523 8.26562C41.1992 8.3125 41.2461 8.39453 41.293 8.51172C41.3633 8.60547 41.4102 8.69922 41.4336 8.79297C41.4805 8.88672 41.5625 8.94531 41.6797 8.96875C41.75 8.99219 41.8203 8.99219 41.8906 8.96875C41.9844 8.92187 42.0781 8.88672 42.1719 8.86328C42.4062 8.83984 42.582 8.80469 42.6992 8.75781C42.8398 8.71094 42.9688 8.69922 43.0859 8.72266C43.2031 8.67578 43.332 8.65234 43.4727 8.65234C43.6367 8.62891 43.7773 8.59375 43.8945 8.54688C44.0586 8.52344 44.1992 8.48828 44.3164 8.44141C44.457 8.39453 44.6211 8.35937 44.8086 8.33594C45.418 8.28906 46.0625 8.34766 46.7422 8.51172C46.8359 8.55859 46.9297 8.61719 47.0234 8.6875C47.1406 8.73438 47.2578 8.78125 47.375 8.82812C47.5625 8.92187 47.7266 8.99219 47.8672 9.03906C48.0312 9.08594 48.1719 9.16797 48.2891 9.28516C48.5234 9.51953 48.7109 9.75391 48.8516 9.98828C48.9453 10.0117 49.0273 10.0586 49.0977 10.1289C49.168 10.1992 49.2383 10.2578 49.3086 10.3047C49.4492 10.5625 49.5898 10.8086 49.7305 11.043C49.8711 11.2539 49.9648 11.5117 50.0117 11.8164C50.0586 12.2148 50.0352 12.625 49.9414 13.0469C49.8711 13.4453 49.8008 13.8437 49.7305 14.2422C49.707 14.3594 49.6836 14.4766 49.6602 14.5938C49.6367 14.6875 49.6133 14.7813 49.5898 14.875C49.5664 14.9453 49.5547 15.0273 49.5547 15.1211C49.5781 15.1914 49.5898 15.2734 49.5898 15.3672C49.5664 15.6484 49.5078 15.918 49.4141 16.1758C49.3438 16.4336 49.2734 16.6914 49.2031 16.9492C49.0156 17.6289 48.8164 18.2734 48.6055 18.8828C48.418 19.4922 48.0781 19.9844 47.5859 20.3594C47.4688 20.5469 47.3398 20.7109 47.1992 20.8516C47.0586 20.9922 46.9062 21.1445 46.7422 21.3086C46.4375 21.6836 46.0391 21.9766 45.5469 22.1875C44.8438 22.7031 44.1289 23.1602 43.4023 23.5586C43.1211 23.7461 42.8398 23.9336 42.5586 24.1211C42.2773 24.3086 41.9727 24.4727 41.6445 24.6133C41.4805 24.7539 41.293 24.8828 41.082 25C40.8945 25.0938 40.6953 25.1992 40.4844 25.3164C39.9453 25.5742 39.4414 25.8203 38.9727 26.0547C38.5273 26.2891 38.0352 26.4883 37.4961 26.6523C37.0742 26.7461 36.6758 26.8164 36.3008 26.8633C35.9258 26.8867 35.5742 26.8516 35.2461 26.7578C35.1758 26.7344 35.0703 26.6992 34.9297 26.6523C34.8125 26.582 34.7305 26.5469 34.6836 26.5469C34.5664 26.5938 34.4727 26.7461 34.4023 27.0039C34.332 27.2383 34.2734 27.4141 34.2266 27.5312C34.0859 27.8594 33.9219 28.1875 33.7344 28.5156C33.5469 28.8203 33.3711 29.1367 33.207 29.4648C33.0664 29.7461 32.9258 30.0391 32.7852 30.3438C32.6445 30.6484 32.5039 30.9414 32.3633 31.2227ZM37.2148 23.6641C37.4023 23.5234 37.6367 23.4648 37.918 23.4883C38.1992 23.5117 38.4453 23.5 38.6562 23.4531C38.8672 23.4062 38.9844 23.3945 39.0078 23.418C39.0547 23.418 39.1016 23.418 39.1484 23.418C39.2188 23.418 39.3125 23.4062 39.4297 23.3828C39.5469 23.3594 39.6289 23.3359 39.6758 23.3125C39.957 23.2188 40.2266 23.0898 40.4844 22.9258C40.7422 22.7617 41 22.6328 41.2578 22.5391C41.375 22.4219 41.5039 22.3281 41.6445 22.2578C41.7852 22.1641 41.9375 22.0586 42.1016 21.9414C42.2188 21.8242 42.3359 21.707 42.4531 21.5898C42.5703 21.4727 42.7109 21.3906 42.875 21.3438C42.9922 21.1562 43.0625 21.0625 43.0859 21.0625C43.1094 21.0391 43.1211 21.0156 43.1211 20.9922C43.3555 20.8281 43.543 20.6406 43.6836 20.4297C43.8477 20.1953 44.0117 19.9492 44.1758 19.6914C44.3398 19.4805 44.5039 19.2695 44.668 19.0586C44.832 18.8242 44.9727 18.5781 45.0898 18.3203C45.2305 18.1328 45.3594 17.9688 45.4766 17.8281C45.5938 17.6641 45.7109 17.4883 45.8281 17.3008C45.875 17.2539 45.8984 17.1953 45.8984 17.125C45.8984 17.0547 45.9219 16.9844 45.9688 16.9141C46.0859 16.6328 46.1797 16.4453 46.25 16.3516C46.3203 16.1172 46.4023 15.9531 46.4961 15.8594C46.543 15.7656 46.5898 15.6836 46.6367 15.6133C46.6836 15.543 46.7305 15.4609 46.7773 15.3672C46.8242 15.25 46.8711 15.1562 46.918 15.0859C46.9883 14.9922 47.0469 14.8984 47.0938 14.8047C47.1406 14.7578 47.1641 14.6992 47.1641 14.6289C47.1875 14.5586 47.2227 14.4883 47.2695 14.418C47.293 14.3477 47.3164 14.2891 47.3398 14.2422C47.3867 14.1719 47.4219 14.1133 47.4453 14.0664C47.5156 13.8789 47.5273 13.6797 47.4805 13.4688C47.4336 13.2578 47.4102 13.082 47.4102 12.9414C47.3164 12.5898 47.2578 12.3086 47.2344 12.0977C47.2109 11.8867 47.1406 11.7227 47.0234 11.6055C46.9766 11.5586 46.918 11.5352 46.8477 11.5352C46.7773 11.5117 46.7188 11.4766 46.6719 11.4297C46.4375 11.3359 46.2734 11.3008 46.1797 11.3242C46.1094 11.3242 46.0156 11.3008 45.8984 11.2539C45.7344 11.3242 45.5352 11.3477 45.3008 11.3242C45.0898 11.2773 44.8555 11.2656 44.5977 11.2891C44.457 11.2891 44.3164 11.3242 44.1758 11.3945C44.0352 11.4414 43.9062 11.4414 43.7891 11.3945C43.6953 11.4414 43.6133 11.4766 43.543 11.5C43.4727 11.5234 43.3906 11.5352 43.2969 11.5352C43.1797 11.5586 43.0742 11.5703 42.9805 11.5703C42.8867 11.5703 42.793 11.582 42.6992 11.6055C42.3945 11.6523 42.1016 11.7344 41.8203 11.8516C41.5625 11.9688 41.2812 12.0742 40.9766 12.168C40.9766 12.3555 40.9531 12.5195 40.9062 12.6602C40.8594 12.8008 40.8359 12.9531 40.8359 13.1172C40.6953 13.5156 40.5312 13.9023 40.3438 14.2773C40.1562 14.6523 40.0039 15.0391 39.8867 15.4375C39.6289 15.9063 39.3945 16.3984 39.1836 16.9141C38.9727 17.4062 38.7383 17.8984 38.4805 18.3906C38.3398 18.6953 38.1758 19 37.9883 19.3047C37.8008 19.6094 37.6836 19.9609 37.6367 20.3594C37.5195 20.6172 37.4258 20.8633 37.3555 21.0977C37.3086 21.332 37.2383 21.5547 37.1445 21.7656C37.0977 21.8828 37.0508 21.9883 37.0039 22.082C36.957 22.1758 36.9102 22.2812 36.8633 22.3984C36.8164 22.4688 36.7812 22.5508 36.7578 22.6445C36.7344 22.7148 36.6992 22.8086 36.6523 22.9258C36.5352 23.1367 36.4531 23.3125 36.4062 23.4531C36.3828 23.5938 36.3477 23.7344 36.3008 23.875C36.418 23.8516 36.5469 23.8047 36.6875 23.7344C36.8516 23.6641 37.0273 23.6406 37.2148 23.6641ZM51.6289 23.9805C51.4648 24.1914 51.3008 24.3906 51.1367 24.5781C50.9727 24.7656 50.7852 24.9414 50.5742 25.1055C50.4336 25.3633 50.2695 25.5977 50.082 25.8086C49.8945 26.0195 49.707 26.2188 49.5195 26.4062C49.4258 26.5938 49.3203 26.7461 49.2031 26.8633C49.0859 26.957 48.957 27.0625 48.8164 27.1797C48.7461 27.2969 48.6523 27.4141 48.5352 27.5312C48.4414 27.6484 48.3477 27.7656 48.2539 27.8828C48.1836 28 48.125 28.1289 48.0781 28.2695C48.0312 28.4102 48.043 28.5625 48.1133 28.7266C48.3711 28.7734 48.6289 28.7383 48.8867 28.6211C49.1445 28.5039 49.3672 28.3984 49.5547 28.3047C49.7422 28.1875 49.9297 28.0938 50.1172 28.0234C50.3281 27.9297 50.5156 27.8242 50.6797 27.707L51.5938 26.793C51.7578 26.6523 51.8984 26.5 52.0156 26.3359C52.1328 26.1719 52.2617 25.9961 52.4023 25.8086C52.4492 25.5742 52.543 25.3398 52.6836 25.1055C52.8242 24.8477 52.8828 24.6016 52.8594 24.3672C52.8359 24.2266 52.7891 24.1094 52.7188 24.0156C52.6719 23.8984 52.6367 23.7812 52.6133 23.6641C52.3789 23.6641 52.1914 23.7109 52.0508 23.8047C51.9336 23.875 51.793 23.9336 51.6289 23.9805ZM45.9688 26.2305C46.0156 26.207 46.1094 26.1133 46.25 25.9492C46.4141 25.7617 46.5898 25.5625 46.7773 25.3516C46.9648 25.1172 47.1406 24.918 47.3047 24.7539C47.4688 24.5664 47.5859 24.4609 47.6562 24.4375C47.7266 24.3203 47.7852 24.2266 47.832 24.1562C47.9023 24.0625 47.9961 23.9805 48.1133 23.9102C48.3008 23.5586 48.5469 23.2773 48.8516 23.0664C49.1562 22.832 49.4492 22.5625 49.7305 22.2578C50.1758 22.0703 50.6211 21.8359 51.0664 21.5547C51.5352 21.25 52.0508 21.0859 52.6133 21.0625C52.8711 21.1797 53.1172 21.2148 53.3516 21.168C53.6094 21.1211 53.8438 21.1797 54.0547 21.3438C54.1719 21.5547 54.2773 21.6953 54.3711 21.7656C54.4648 21.8125 54.5352 21.8711 54.582 21.9414C54.6758 22.2461 54.7461 22.4453 54.793 22.5391C54.8398 22.6094 54.875 22.7031 54.8984 22.8203C54.9219 23.1719 54.9453 23.4297 54.9688 23.5938C54.9922 23.7344 54.9922 23.875 54.9688 24.0156C54.8984 24.6484 54.7812 25.2461 54.6172 25.8086C54.5703 25.9492 54.5234 26.1016 54.4766 26.2656C54.4297 26.4062 54.3711 26.5352 54.3008 26.6523C54.1367 26.8633 54.0078 27.0508 53.9141 27.2148C53.8438 27.3555 53.7734 27.4727 53.7031 27.5664C53.4219 27.8477 53.1758 28.082 52.9648 28.2695C52.7539 28.3867 52.543 28.5156 52.332 28.6562C52.1211 28.7969 51.8867 28.8906 51.6289 28.9375C51.5117 29.0078 51.4062 29.0781 51.3125 29.1484C51.2188 29.1953 51.1016 29.2305 50.9609 29.2539C50.7266 29.418 50.4922 29.5469 50.2578 29.6406C50.0234 29.7109 49.7773 29.8047 49.5195 29.9219C49.3789 29.9688 49.2266 30.0508 49.0625 30.168C48.8984 30.2852 48.7344 30.3789 48.5703 30.4492C48.4297 30.4961 48.2539 30.543 48.043 30.5898C47.8555 30.6133 47.7031 30.6484 47.5859 30.6953C47.7031 30.9531 47.75 31.2461 47.7266 31.5742C47.7031 31.9023 47.7617 32.1953 47.9023 32.4531C48.207 32.5234 48.5352 32.582 48.8867 32.6289C49.2617 32.6523 49.6133 32.6406 49.9414 32.5938C50.0586 32.5703 50.1875 32.5352 50.3281 32.4883C50.4688 32.418 50.6094 32.3711 50.75 32.3477C51.0078 32.3008 51.2539 32.2422 51.4883 32.1719C51.7461 32.1016 51.9688 32.0078 52.1562 31.8906C52.8359 31.6562 53.4922 31.3398 54.125 30.9414C54.7578 30.543 55.3086 30.1094 55.7773 29.6406C56.0586 29.4531 56.3633 29.1953 56.6914 28.8672C57.043 28.5391 57.3125 28.2344 57.5 27.9531C57.8516 27.5781 58.1562 27.2852 58.4141 27.0742C58.6953 26.8633 58.9531 26.7695 59.1875 26.793C59.375 26.793 59.5508 26.9102 59.7148 27.1445C59.9023 27.3555 59.8906 27.5898 59.6797 27.8477C59.4453 27.9883 59.1992 28.1992 58.9414 28.4805C58.6836 28.7617 58.4141 28.9609 58.1328 29.0781C57.9219 29.2188 57.6523 29.4766 57.3242 29.8516C57.0195 30.2266 56.7617 30.5078 56.5508 30.6953C56.457 30.7891 56.3281 30.9062 56.1641 31.0469C56.0234 31.1641 55.9062 31.2812 55.8125 31.3984C55.4844 31.6797 55.1328 31.9375 54.7578 32.1719C54.6172 32.125 54.5117 32.1484 54.4414 32.2422C54.3711 32.3359 54.2773 32.4297 54.1602 32.5234C54.0898 32.5703 54.0078 32.6172 53.9141 32.6641C53.8438 32.7109 53.7734 32.7578 53.7031 32.8047C53.5156 32.9688 53.3047 33.1328 53.0703 33.2969C52.8594 33.4609 52.6367 33.6016 52.4023 33.7188C51.9336 34 51.4648 34.2344 50.9961 34.4219C50.5273 34.6328 50.0703 34.8906 49.625 35.1953C49.4844 35.2188 49.3555 35.2305 49.2383 35.2305C49.1211 35.2539 49.0039 35.2773 48.8867 35.3008C48.7461 35.3477 48.6172 35.3711 48.5 35.3711C48.4062 35.3711 48.2656 35.3477 48.0781 35.3008C47.6562 35.1836 47.3047 35.043 47.0234 34.8789C46.7422 34.7148 46.4609 34.4805 46.1797 34.1758C46.0391 34.0352 45.8867 33.9062 45.7227 33.7891C45.5586 33.6719 45.4297 33.543 45.3359 33.4023C45.2656 33.2852 45.1836 33.0977 45.0898 32.8398C44.9961 32.582 44.9141 32.3125 44.8438 32.0312C44.7734 31.7266 44.7148 31.4336 44.668 31.1523C44.6211 30.8711 44.5977 30.6602 44.5977 30.5195C44.6445 30.4258 44.7031 30.2617 44.7734 30.0273C44.8203 29.793 44.8789 29.5469 44.9492 29.2891C44.9961 29.0078 45.043 28.75 45.0898 28.5156C45.1133 28.2812 45.125 28.1172 45.125 28.0234C45.1484 28 45.207 27.9062 45.3008 27.7422C45.3945 27.5547 45.5 27.3555 45.6172 27.1445C45.7109 26.9336 45.793 26.7461 45.8633 26.582C45.9336 26.3945 45.9688 26.2773 45.9688 26.2305ZM68.0469 14.5938C68.3516 14.6406 68.6094 14.6758 68.8203 14.6992C69.0312 14.7227 69.2188 14.7461 69.3828 14.7695C69.5703 14.7695 69.7578 14.7695 69.9453 14.7695C70.1328 14.7461 70.3672 14.7109 70.6484 14.6641C71.1641 14.5938 71.6211 14.5352 72.0195 14.4883C72.4414 14.418 72.8984 14.3594 73.3906 14.3125C73.5312 14.2891 73.6719 14.2891 73.8125 14.3125C73.9766 14.3359 74.1289 14.3477 74.2695 14.3477C74.5742 14.3477 74.8672 14.3359 75.1484 14.3125C75.4531 14.2891 75.7344 14.2656 75.9922 14.2422C76.0859 14.2188 76.168 14.1953 76.2383 14.1719C76.3086 14.1484 76.3789 14.1484 76.4492 14.1719C76.6602 14.1719 76.8711 14.1719 77.082 14.1719C77.293 14.1484 77.4805 14.2188 77.6445 14.3828C77.7148 14.6172 77.7383 14.7461 77.7148 14.7695C77.6914 14.793 77.668 14.8281 77.6445 14.875C77.6211 15.1797 77.5742 15.332 77.5039 15.332C77.457 15.332 77.4336 15.3555 77.4336 15.4023C77.2461 15.4492 77.082 15.4961 76.9414 15.543C76.8242 15.5664 76.7305 15.6367 76.6602 15.7539C76.2617 15.8477 75.8867 15.8711 75.5352 15.8242C75.207 15.7539 74.8672 15.8008 74.5156 15.9648C74.3516 16.0352 74.1758 16.1289 73.9883 16.2461C73.8242 16.3398 73.6133 16.3398 73.3555 16.2461C73.1211 16.2461 72.8516 16.2578 72.5469 16.2812C72.2422 16.3047 71.9492 16.3281 71.668 16.3516C71.1289 16.3984 70.6602 16.4453 70.2617 16.4922C69.8867 16.5156 69.5234 16.5391 69.1719 16.5625C68.8203 16.5625 68.457 16.5742 68.082 16.5977C67.7305 16.6211 67.2969 16.6328 66.7812 16.6328C66.5938 16.7969 66.4648 16.9961 66.3945 17.2305C66.3477 17.4648 66.2305 17.6523 66.043 17.793C65.8555 18.2383 65.7031 18.543 65.5859 18.707C65.4688 18.8477 65.3867 19.0234 65.3398 19.2344C65.0117 19.6562 64.707 20.1016 64.4258 20.5703C64.168 21.0156 63.8633 21.4375 63.5117 21.8359C63.4648 22.0938 63.3711 22.3281 63.2305 22.5391C63.1133 22.7266 63.0312 22.9844 62.9844 23.3125C62.7266 23.6641 62.5391 24.0508 62.4219 24.4727C62.3047 24.8945 62.1523 25.3398 61.9648 25.8086C61.918 25.9961 61.8594 26.1836 61.7891 26.3711C61.7422 26.5352 61.6836 26.7109 61.6133 26.8984C61.5195 27.1328 61.4023 27.3555 61.2617 27.5664C61.1445 27.7539 61.0273 27.9648 60.9102 28.1992C60.8633 28.2461 60.8398 28.3164 60.8398 28.4102C60.8398 28.4805 60.8281 28.5391 60.8047 28.5859C60.7344 28.75 60.6641 28.9023 60.5938 29.043C60.5234 29.1602 60.4648 29.2773 60.418 29.3945C60.3711 29.5117 60.3359 29.6406 60.3125 29.7812C60.3125 29.8984 60.2891 30.0156 60.2422 30.1328C60.2188 30.2031 60.1953 30.2734 60.1719 30.3438C60.1484 30.3906 60.125 30.4492 60.1016 30.5195C60.0312 30.8477 60.0312 31.0703 60.1016 31.1875C60.1719 31.3047 60.2305 31.4219 60.2773 31.5391C60.3242 31.6797 60.3711 31.8086 60.418 31.9258C60.4648 32.0195 60.5 32.125 60.5234 32.2422C60.6406 32.2891 60.7461 32.3359 60.8398 32.3828C60.957 32.4297 61.0742 32.4531 61.1914 32.4531C61.332 32.4766 61.4844 32.418 61.6484 32.2773C61.8125 32.1133 61.9531 32.0195 62.0703 31.9961C62.2344 31.9492 62.3867 31.9258 62.5273 31.9258C62.6914 31.9258 62.832 31.8906 62.9492 31.8203C63.0898 31.7031 63.207 31.5859 63.3008 31.4688C63.3945 31.3516 63.5234 31.2695 63.6875 31.2227C64.0625 31.1289 64.2617 31.0586 64.2852 31.0117C64.3086 30.9414 64.3906 30.8477 64.5312 30.7305C64.6953 30.6133 64.8359 30.5078 64.9531 30.4141C65.0938 30.2969 65.2578 30.1797 65.4453 30.0625C65.6797 29.9453 65.8086 29.875 65.832 29.8516C65.8789 29.8281 65.9844 29.7461 66.1484 29.6055C66.3828 29.4883 66.582 29.3594 66.7461 29.2188C66.9102 29.0781 67.0977 28.9492 67.3086 28.832C67.543 28.7383 67.6836 28.6797 67.7305 28.6562C67.7773 28.6094 67.8008 28.5742 67.8008 28.5508C67.8242 28.5273 67.8477 28.4922 67.8711 28.4453C67.918 28.3984 68.0352 28.3164 68.2227 28.1992C68.3164 28.0117 68.4219 27.8594 68.5391 27.7422C68.6562 27.625 68.7969 27.4727 68.9609 27.2852C69.1016 27.1211 69.2422 26.9805 69.3828 26.8633C69.5469 26.7461 69.6875 26.6289 69.8047 26.5117C69.875 26.4648 69.9336 26.418 69.9805 26.3711C70.0273 26.3008 70.1094 26.2539 70.2266 26.2305C70.3672 26.1133 70.4727 26.0195 70.543 25.9492C70.6367 25.8555 70.7773 25.7266 70.9648 25.5625C71.0117 25.5156 71.0703 25.457 71.1406 25.3867C71.2109 25.3164 71.2695 25.2695 71.3164 25.2461C71.4102 25.2461 71.4805 25.2812 71.5273 25.3516C71.5977 25.4219 71.6797 25.457 71.7734 25.457C71.75 25.7617 71.7383 25.9609 71.7383 26.0547C71.7383 26.125 71.7148 26.207 71.668 26.3008C71.5273 26.5117 71.3633 26.6289 71.1758 26.6523C71.0117 26.6758 70.8828 26.8047 70.7891 27.0391C70.7188 26.9922 70.625 26.9805 70.5078 27.0039C70.4141 27.0273 70.3438 27.0625 70.2969 27.1094C70.3438 27.2031 70.3672 27.2852 70.3672 27.3555C70.3672 27.4258 70.3789 27.5078 70.4023 27.6016C69.9805 28.0234 69.6992 28.3633 69.5586 28.6211C69.2773 28.9258 69.125 29.1016 69.1016 29.1484C69.0781 29.1719 69.0664 29.1836 69.0664 29.1836C69.0664 29.1836 69.0547 29.1953 69.0312 29.2188C69.0078 29.2422 68.9258 29.3242 68.7852 29.4648C68.457 29.7227 68.2109 29.9688 68.0469 30.2031C67.8828 30.4375 67.6367 30.6484 67.3086 30.8359C67.0508 31.0234 66.875 31.1641 66.7812 31.2578C66.6875 31.3516 66.5469 31.4805 66.3594 31.6445C66.2656 31.7383 66.1719 31.8438 66.0781 31.9609C66.0078 32.0547 65.9141 32.1484 65.7969 32.2422C65.6328 32.3594 65.4688 32.4648 65.3047 32.5586C65.1641 32.6523 65.0352 32.7695 64.918 32.9102C64.5664 33.0742 64.3086 33.2617 64.1445 33.4727C64.0039 33.6836 63.7812 33.8828 63.4766 34.0703C63.2656 34.2109 62.9727 34.3867 62.5977 34.5977C62.2461 34.8086 61.9414 34.9609 61.6836 35.0547C61.6133 35.0781 61.543 35.1016 61.4727 35.125C61.4258 35.1484 61.3672 35.1719 61.2969 35.1953C61.1094 35.0781 60.9219 34.9609 60.7344 34.8438C60.5703 34.7266 60.4297 34.5625 60.3125 34.3516C60.1016 34.1875 59.9258 34.0703 59.7852 34C59.668 33.9297 59.5508 33.8359 59.4336 33.7188C59.1992 33.3203 58.9297 32.9219 58.625 32.5234C58.3438 32.125 58.1211 31.6797 57.957 31.1875C57.9102 31.0938 57.875 31 57.8516 30.9062C57.8516 30.7891 57.8398 30.6719 57.8164 30.5547C57.7695 30.3672 57.7227 30.2031 57.6758 30.0625C57.6289 29.9219 57.6172 29.7461 57.6406 29.5352C57.6406 29.3945 57.6641 29.2422 57.7109 29.0781C57.7578 28.9141 57.8047 28.7383 57.8516 28.5508C57.9453 28.2461 58.0508 27.9531 58.168 27.6719C58.3086 27.3906 58.4141 27.0859 58.4844 26.7578C58.5547 26.5 58.625 26.2656 58.6953 26.0547C58.7656 25.8438 58.8477 25.6094 58.9414 25.3516C58.9883 25.2344 59.0117 25.1289 59.0117 25.0352C59.0352 24.918 59.1055 24.8359 59.2227 24.7891C59.3164 24.3203 59.4688 23.875 59.6797 23.4531C59.8906 23.0078 60.1016 22.5859 60.3125 22.1875C60.5703 21.6953 60.8047 21.1914 61.0156 20.6758C61.25 20.1602 61.4961 19.6562 61.7539 19.1641C61.7773 18.8828 61.8711 18.6484 62.0352 18.4609C62.0586 18.2031 62.1523 17.957 62.3164 17.7227C62.4805 17.4648 62.5977 17.207 62.668 16.9492C62.4102 16.8789 62.1172 16.8789 61.7891 16.9492C61.4844 16.9961 61.2148 17.043 60.9805 17.0898C60.5586 17.1133 60.1133 17.1133 59.6445 17.0898C59.4805 17.0664 59.3164 17.043 59.1523 17.0195C59.0117 16.9727 58.8711 16.9492 58.7305 16.9492C58.5195 16.9727 58.3555 16.9609 58.2383 16.9141C58.1445 16.8438 58.0391 16.832 57.9219 16.8789C57.6172 16.6211 57.3945 16.4453 57.2539 16.3516C57.1133 16.2578 56.9844 16.1758 56.8672 16.1055C56.7266 16.0117 56.6094 15.918 56.5156 15.8242C56.3984 15.707 56.3047 15.543 56.2344 15.332C56.2344 15.2617 56.2695 15.2031 56.3398 15.1562C56.4102 15.1094 56.4688 15.0625 56.5156 15.0156C56.7031 14.9687 56.9141 14.957 57.1484 14.9805C57.3828 14.9805 57.5703 14.9336 57.7109 14.8398C58.0859 14.8867 58.4258 14.8633 58.7305 14.7695C59.0586 14.6758 59.3984 14.6406 59.75 14.6641C59.8203 14.6641 59.8906 14.6758 59.9609 14.6992C60.0312 14.7227 60.1016 14.7344 60.1719 14.7344C60.2891 14.7578 60.3828 14.7578 60.4531 14.7344C60.5469 14.7109 60.6523 14.6875 60.7695 14.6641C60.9102 14.6406 61.0625 14.6406 61.2266 14.6641C61.3906 14.6875 61.5547 14.6875 61.7188 14.6641C62.0234 14.6406 62.3867 14.6758 62.8086 14.7695C63.2539 14.8398 63.6406 14.8164 63.9688 14.6992C64.0859 14.3711 64.2148 14.043 64.3555 13.7148C64.5195 13.3633 64.6484 13.0234 64.7422 12.6953C64.8359 12.5547 64.9297 12.4023 65.0234 12.2383C65.1172 12.0508 65.1875 11.875 65.2344 11.7109C65.375 11.4766 65.4805 11.2891 65.5508 11.1484C65.6445 11.0078 65.75 10.8672 65.8672 10.7266C66.0312 10.3984 66.1484 10.082 66.2188 9.77734C66.3125 9.44922 66.4297 9.09766 66.5703 8.72266C66.875 8.39453 67.1797 7.99609 67.4844 7.52734C67.6484 7.55078 67.7773 7.50391 67.8711 7.38672C67.9883 7.26953 68.1523 7.28125 68.3633 7.42188C68.3633 7.49219 68.3867 7.5625 68.4336 7.63281C68.5039 7.67969 68.5156 7.76172 68.4688 7.87891C68.5859 7.99609 68.6797 8.10156 68.75 8.19531C68.8203 8.28906 68.8789 8.39453 68.9258 8.51172C68.9727 8.69922 68.9492 8.92187 68.8555 9.17969C68.7852 9.41406 68.8086 9.63672 68.9258 9.84766C68.9727 9.96484 68.9844 10.082 68.9609 10.1992C68.9375 10.293 68.9492 10.3867 68.9961 10.4805C69.043 10.5977 69.1016 10.7148 69.1719 10.832C69.2656 10.9492 69.3125 11.1016 69.3125 11.2891C69.3125 11.3594 69.2891 11.4531 69.2422 11.5703C69.2188 11.6641 69.1836 11.7695 69.1367 11.8867C69.043 12.2383 68.9727 12.4844 68.9258 12.625C68.8789 12.7656 68.832 12.918 68.7852 13.082C68.6211 13.2695 68.5391 13.3984 68.5391 13.4688C68.5391 13.5156 68.5273 13.5625 68.5039 13.6094C68.4336 13.75 68.3516 13.9258 68.2578 14.1367C68.1875 14.3242 68.1172 14.4766 68.0469 14.5938ZM78.7344 14.5938C79.0391 14.6406 79.2969 14.6758 79.5078 14.6992C79.7188 14.7227 79.9062 14.7461 80.0703 14.7695C80.2578 14.7695 80.4453 14.7695 80.6328 14.7695C80.8203 14.7461 81.0547 14.7109 81.3359 14.6641C81.8516 14.5938 82.3086 14.5352 82.707 14.4883C83.1289 14.418 83.5859 14.3594 84.0781 14.3125C84.2188 14.2891 84.3594 14.2891 84.5 14.3125C84.6641 14.3359 84.8164 14.3477 84.957 14.3477C85.2617 14.3477 85.5547 14.3359 85.8359 14.3125C86.1406 14.2891 86.4219 14.2656 86.6797 14.2422C86.7734 14.2188 86.8555 14.1953 86.9258 14.1719C86.9961 14.1484 87.0664 14.1484 87.1367 14.1719C87.3477 14.1719 87.5586 14.1719 87.7695 14.1719C87.9805 14.1484 88.168 14.2188 88.332 14.3828C88.4023 14.6172 88.4258 14.7461 88.4023 14.7695C88.3789 14.793 88.3555 14.8281 88.332 14.875C88.3086 15.1797 88.2617 15.332 88.1914 15.332C88.1445 15.332 88.1211 15.3555 88.1211 15.4023C87.9336 15.4492 87.7695 15.4961 87.6289 15.543C87.5117 15.5664 87.418 15.6367 87.3477 15.7539C86.9492 15.8477 86.5742 15.8711 86.2227 15.8242C85.8945 15.7539 85.5547 15.8008 85.2031 15.9648C85.0391 16.0352 84.8633 16.1289 84.6758 16.2461C84.5117 16.3398 84.3008 16.3398 84.043 16.2461C83.8086 16.2461 83.5391 16.2578 83.2344 16.2812C82.9297 16.3047 82.6367 16.3281 82.3555 16.3516C81.8164 16.3984 81.3477 16.4453 80.9492 16.4922C80.5742 16.5156 80.2109 16.5391 79.8594 16.5625C79.5078 16.5625 79.1445 16.5742 78.7695 16.5977C78.418 16.6211 77.9844 16.6328 77.4688 16.6328C77.2812 16.7969 77.1523 16.9961 77.082 17.2305C77.0352 17.4648 76.918 17.6523 76.7305 17.793C76.543 18.2383 76.3906 18.543 76.2734 18.707C76.1562 18.8477 76.0742 19.0234 76.0273 19.2344C75.6992 19.6562 75.3945 20.1016 75.1133 20.5703C74.8555 21.0156 74.5508 21.4375 74.1992 21.8359C74.1523 22.0938 74.0586 22.3281 73.918 22.5391C73.8008 22.7266 73.7188 22.9844 73.6719 23.3125C73.4141 23.6641 73.2266 24.0508 73.1094 24.4727C72.9922 24.8945 72.8398 25.3398 72.6523 25.8086C72.6055 25.9961 72.5469 26.1836 72.4766 26.3711C72.4297 26.5352 72.3711 26.7109 72.3008 26.8984C72.207 27.1328 72.0898 27.3555 71.9492 27.5664C71.832 27.7539 71.7148 27.9648 71.5977 28.1992C71.5508 28.2461 71.5273 28.3164 71.5273 28.4102C71.5273 28.4805 71.5156 28.5391 71.4922 28.5859C71.4219 28.75 71.3516 28.9023 71.2812 29.043C71.2109 29.1602 71.1523 29.2773 71.1055 29.3945C71.0586 29.5117 71.0234 29.6406 71 29.7812C71 29.8984 70.9766 30.0156 70.9297 30.1328C70.9062 30.2031 70.8828 30.2734 70.8594 30.3438C70.8359 30.3906 70.8125 30.4492 70.7891 30.5195C70.7188 30.8477 70.7188 31.0703 70.7891 31.1875C70.8594 31.3047 70.918 31.4219 70.9648 31.5391C71.0117 31.6797 71.0586 31.8086 71.1055 31.9258C71.1523 32.0195 71.1875 32.125 71.2109 32.2422C71.3281 32.2891 71.4336 32.3359 71.5273 32.3828C71.6445 32.4297 71.7617 32.4531 71.8789 32.4531C72.0195 32.4766 72.1719 32.418 72.3359 32.2773C72.5 32.1133 72.6406 32.0195 72.7578 31.9961C72.9219 31.9492 73.0742 31.9258 73.2148 31.9258C73.3789 31.9258 73.5195 31.8906 73.6367 31.8203C73.7773 31.7031 73.8945 31.5859 73.9883 31.4688C74.082 31.3516 74.2109 31.2695 74.375 31.2227C74.75 31.1289 74.9492 31.0586 74.9727 31.0117C74.9961 30.9414 75.0781 30.8477 75.2188 30.7305C75.3828 30.6133 75.5234 30.5078 75.6406 30.4141C75.7812 30.2969 75.9453 30.1797 76.1328 30.0625C76.3672 29.9453 76.4961 29.875 76.5195 29.8516C76.5664 29.8281 76.6719 29.7461 76.8359 29.6055C77.0703 29.4883 77.2695 29.3594 77.4336 29.2188C77.5977 29.0781 77.7852 28.9492 77.9961 28.832C78.2305 28.7383 78.3711 28.6797 78.418 28.6562C78.4648 28.6094 78.4883 28.5742 78.4883 28.5508C78.5117 28.5273 78.5352 28.4922 78.5586 28.4453C78.6055 28.3984 78.7227 28.3164 78.9102 28.1992C79.0039 28.0117 79.1094 27.8594 79.2266 27.7422C79.3438 27.625 79.4844 27.4727 79.6484 27.2852C79.7891 27.1211 79.9297 26.9805 80.0703 26.8633C80.2344 26.7461 80.375 26.6289 80.4922 26.5117C80.5625 26.4648 80.6211 26.418 80.668 26.3711C80.7148 26.3008 80.7969 26.2539 80.9141 26.2305C81.0547 26.1133 81.1602 26.0195 81.2305 25.9492C81.3242 25.8555 81.4648 25.7266 81.6523 25.5625C81.6992 25.5156 81.7578 25.457 81.8281 25.3867C81.8984 25.3164 81.957 25.2695 82.0039 25.2461C82.0977 25.2461 82.168 25.2812 82.2148 25.3516C82.2852 25.4219 82.3672 25.457 82.4609 25.457C82.4375 25.7617 82.4258 25.9609 82.4258 26.0547C82.4258 26.125 82.4023 26.207 82.3555 26.3008C82.2148 26.5117 82.0508 26.6289 81.8633 26.6523C81.6992 26.6758 81.5703 26.8047 81.4766 27.0391C81.4062 26.9922 81.3125 26.9805 81.1953 27.0039C81.1016 27.0273 81.0312 27.0625 80.9844 27.1094C81.0312 27.2031 81.0547 27.2852 81.0547 27.3555C81.0547 27.4258 81.0664 27.5078 81.0898 27.6016C80.668 28.0234 80.3867 28.3633 80.2461 28.6211C79.9648 28.9258 79.8125 29.1016 79.7891 29.1484C79.7656 29.1719 79.7539 29.1836 79.7539 29.1836C79.7539 29.1836 79.7422 29.1953 79.7188 29.2188C79.6953 29.2422 79.6133 29.3242 79.4727 29.4648C79.1445 29.7227 78.8984 29.9688 78.7344 30.2031C78.5703 30.4375 78.3242 30.6484 77.9961 30.8359C77.7383 31.0234 77.5625 31.1641 77.4688 31.2578C77.375 31.3516 77.2344 31.4805 77.0469 31.6445C76.9531 31.7383 76.8594 31.8438 76.7656 31.9609C76.6953 32.0547 76.6016 32.1484 76.4844 32.2422C76.3203 32.3594 76.1562 32.4648 75.9922 32.5586C75.8516 32.6523 75.7227 32.7695 75.6055 32.9102C75.2539 33.0742 74.9961 33.2617 74.832 33.4727C74.6914 33.6836 74.4688 33.8828 74.1641 34.0703C73.9531 34.2109 73.6602 34.3867 73.2852 34.5977C72.9336 34.8086 72.6289 34.9609 72.3711 35.0547C72.3008 35.0781 72.2305 35.1016 72.1602 35.125C72.1133 35.1484 72.0547 35.1719 71.9844 35.1953C71.7969 35.0781 71.6094 34.9609 71.4219 34.8438C71.2578 34.7266 71.1172 34.5625 71 34.3516C70.7891 34.1875 70.6133 34.0703 70.4727 34C70.3555 33.9297 70.2383 33.8359 70.1211 33.7188C69.8867 33.3203 69.6172 32.9219 69.3125 32.5234C69.0312 32.125 68.8086 31.6797 68.6445 31.1875C68.5977 31.0938 68.5625 31 68.5391 30.9062C68.5391 30.7891 68.5273 30.6719 68.5039 30.5547C68.457 30.3672 68.4102 30.2031 68.3633 30.0625C68.3164 29.9219 68.3047 29.7461 68.3281 29.5352C68.3281 29.3945 68.3516 29.2422 68.3984 29.0781C68.4453 28.9141 68.4922 28.7383 68.5391 28.5508C68.6328 28.2461 68.7383 27.9531 68.8555 27.6719C68.9961 27.3906 69.1016 27.0859 69.1719 26.7578C69.2422 26.5 69.3125 26.2656 69.3828 26.0547C69.4531 25.8438 69.5352 25.6094 69.6289 25.3516C69.6758 25.2344 69.6992 25.1289 69.6992 25.0352C69.7227 24.918 69.793 24.8359 69.9102 24.7891C70.0039 24.3203 70.1562 23.875 70.3672 23.4531C70.5781 23.0078 70.7891 22.5859 71 22.1875C71.2578 21.6953 71.4922 21.1914 71.7031 20.6758C71.9375 20.1602 72.1836 19.6562 72.4414 19.1641C72.4648 18.8828 72.5586 18.6484 72.7227 18.4609C72.7461 18.2031 72.8398 17.957 73.0039 17.7227C73.168 17.4648 73.2852 17.207 73.3555 16.9492C73.0977 16.8789 72.8047 16.8789 72.4766 16.9492C72.1719 16.9961 71.9023 17.043 71.668 17.0898C71.2461 17.1133 70.8008 17.1133 70.332 17.0898C70.168 17.0664 70.0039 17.043 69.8398 17.0195C69.6992 16.9727 69.5586 16.9492 69.418 16.9492C69.207 16.9727 69.043 16.9609 68.9258 16.9141C68.832 16.8438 68.7266 16.832 68.6094 16.8789C68.3047 16.6211 68.082 16.4453 67.9414 16.3516C67.8008 16.2578 67.6719 16.1758 67.5547 16.1055C67.4141 16.0117 67.2969 15.918 67.2031 15.8242C67.0859 15.707 66.9922 15.543 66.9219 15.332C66.9219 15.2617 66.957 15.2031 67.0273 15.1562C67.0977 15.1094 67.1562 15.0625 67.2031 15.0156C67.3906 14.9687 67.6016 14.957 67.8359 14.9805C68.0703 14.9805 68.2578 14.9336 68.3984 14.8398C68.7734 14.8867 69.1133 14.8633 69.418 14.7695C69.7461 14.6758 70.0859 14.6406 70.4375 14.6641C70.5078 14.6641 70.5781 14.6758 70.6484 14.6992C70.7188 14.7227 70.7891 14.7344 70.8594 14.7344C70.9766 14.7578 71.0703 14.7578 71.1406 14.7344C71.2344 14.7109 71.3398 14.6875 71.457 14.6641C71.5977 14.6406 71.75 14.6406 71.9141 14.6641C72.0781 14.6875 72.2422 14.6875 72.4062 14.6641C72.7109 14.6406 73.0742 14.6758 73.4961 14.7695C73.9414 14.8398 74.3281 14.8164 74.6562 14.6992C74.7734 14.3711 74.9023 14.043 75.043 13.7148C75.207 13.3633 75.3359 13.0234 75.4297 12.6953C75.5234 12.5547 75.6172 12.4023 75.7109 12.2383C75.8047 12.0508 75.875 11.875 75.9219 11.7109C76.0625 11.4766 76.168 11.2891 76.2383 11.1484C76.332 11.0078 76.4375 10.8672 76.5547 10.7266C76.7188 10.3984 76.8359 10.082 76.9062 9.77734C77 9.44922 77.1172 9.09766 77.2578 8.72266C77.5625 8.39453 77.8672 7.99609 78.1719 7.52734C78.3359 7.55078 78.4648 7.50391 78.5586 7.38672C78.6758 7.26953 78.8398 7.28125 79.0508 7.42188C79.0508 7.49219 79.0742 7.5625 79.1211 7.63281C79.1914 7.67969 79.2031 7.76172 79.1562 7.87891C79.2734 7.99609 79.3672 8.10156 79.4375 8.19531C79.5078 8.28906 79.5664 8.39453 79.6133 8.51172C79.6602 8.69922 79.6367 8.92187 79.543 9.17969C79.4727 9.41406 79.4961 9.63672 79.6133 9.84766C79.6602 9.96484 79.6719 10.082 79.6484 10.1992C79.625 10.293 79.6367 10.3867 79.6836 10.4805C79.7305 10.5977 79.7891 10.7148 79.8594 10.832C79.9531 10.9492 80 11.1016 80 11.2891C80 11.3594 79.9766 11.4531 79.9297 11.5703C79.9062 11.6641 79.8711 11.7695 79.8242 11.8867C79.7305 12.2383 79.6602 12.4844 79.6133 12.625C79.5664 12.7656 79.5195 12.918 79.4727 13.082C79.3086 13.2695 79.2266 13.3984 79.2266 13.4688C79.2266 13.5156 79.2148 13.5625 79.1914 13.6094C79.1211 13.75 79.0391 13.9258 78.9453 14.1367C78.875 14.3242 78.8047 14.4766 78.7344 14.5938ZM81.3008 31.2227C81.5352 31.2695 81.7461 31.2109 81.9336 31.0469C82.1211 30.8828 82.3203 30.7422 82.5312 30.625C82.625 30.5078 82.7305 30.3906 82.8477 30.2734C82.9883 30.1328 83.1289 30.0156 83.2695 29.9219C83.5977 29.5 83.9609 29.1016 84.3594 28.7266C84.5469 28.4922 84.7344 28.2695 84.9219 28.0586C85.1094 27.8477 85.2969 27.625 85.4844 27.3906C85.6016 27.2266 85.6953 27.0742 85.7656 26.9336C85.8359 26.793 85.918 26.6523 86.0117 26.5117C86.1289 26.3242 86.2578 26.1367 86.3984 25.9492C86.5625 25.7617 86.6797 25.5391 86.75 25.2812C86.8438 25.1406 86.9609 25.0234 87.1016 24.9297C87.2656 24.8359 87.3945 24.7188 87.4883 24.5781C87.5586 24.4844 87.6172 24.3789 87.6641 24.2617C87.7109 24.1445 87.7812 24.0508 87.875 23.9805C87.9688 23.9102 88.0156 23.8516 88.0156 23.8047C88.0391 23.7578 88.0742 23.7109 88.1211 23.6641C88.1914 23.5469 88.2734 23.4414 88.3672 23.3477C88.4844 23.2539 88.5898 23.1484 88.6836 23.0312C88.9414 22.8203 89.1523 22.6445 89.3164 22.5039C89.4805 22.3398 89.6562 22.1992 89.8438 22.082C90.2656 21.9414 90.6875 21.8945 91.1094 21.9414C91.5547 21.9883 91.8711 22.1406 92.0586 22.3984C92.082 22.7031 92.1172 22.9961 92.1641 23.2773C92.2344 23.5352 92.1992 23.875 92.0586 24.2969C91.9648 24.5312 91.8477 24.7656 91.707 25C91.5664 25.2344 91.4609 25.4688 91.3906 25.7031C91.3438 25.7734 91.2969 25.8438 91.25 25.9141C91.2031 25.9844 91.1562 26.043 91.1094 26.0898C90.875 26.7227 90.6289 27.3438 90.3711 27.9531C90.1133 28.5391 89.8555 29.1367 89.5977 29.7461C90.1836 29.4648 90.6289 29.2188 90.9336 29.0078C91.2383 28.7969 91.5664 28.5977 91.918 28.4102C92.1289 28.2695 92.3398 28.1289 92.5508 27.9883C92.7617 27.8477 92.9844 27.707 93.2188 27.5664C93.4062 27.332 93.6172 27.1445 93.8516 27.0039C94.0859 26.8398 94.332 26.6758 94.5898 26.5117C94.7539 26.3477 94.918 26.2188 95.082 26.125C95.2461 26.0078 95.4219 25.8906 95.6094 25.7734C95.7266 25.6797 95.832 25.5859 95.9258 25.4922C96.043 25.3984 96.1602 25.3164 96.2773 25.2461C96.3711 25.1523 96.4531 25.0586 96.5234 24.9648C96.6172 24.8711 96.7227 24.7891 96.8398 24.7188C96.957 24.6719 97.0625 24.625 97.1562 24.5781C97.25 24.5312 97.3555 24.4727 97.4727 24.4023C97.5664 24.3555 97.6484 24.2969 97.7188 24.2266C97.8125 24.1562 97.918 24.0977 98.0352 24.0508C98.1055 23.957 98.1875 23.8516 98.2812 23.7344C98.375 23.5938 98.5039 23.5469 98.668 23.5938C98.7148 23.5234 98.7969 23.4883 98.9141 23.4883C99.0547 23.4883 99.1602 23.5117 99.2305 23.5586C99.2305 23.6523 99.2422 23.7227 99.2656 23.7695C99.3125 23.8164 99.3125 23.8984 99.2656 24.0156C99.1484 24.1094 99.043 24.2031 98.9492 24.2969C98.8555 24.3672 98.7383 24.4258 98.5977 24.4727C98.293 24.8008 98.0234 25.0352 97.7891 25.1758C97.5781 25.3164 97.4023 25.5156 97.2617 25.7734C96.8633 26.1719 96.4531 26.5703 96.0312 26.9688C95.6094 27.3672 95.1875 27.7539 94.7656 28.1289C94.625 28.1289 94.4961 28.1758 94.3789 28.2695C94.2617 28.3633 94.1445 28.3867 94.0273 28.3398C93.8867 28.293 93.7695 28.3867 93.6758 28.6211C93.3711 28.9492 93.043 29.2539 92.6914 29.5352C92.3633 29.8164 92.0117 30.0859 91.6367 30.3438C91.168 30.8359 90.6406 31.2695 90.0547 31.6445C89.4688 31.9961 88.9414 32.4062 88.4727 32.875C88.4258 33.3438 88.2969 33.7891 88.0859 34.2109C87.8984 34.6562 87.7461 35.0898 87.6289 35.5117C87.4414 35.9102 87.3008 36.2617 87.207 36.5664C87.1367 36.8711 87.0195 37.1641 86.8555 37.4453C86.7852 37.8438 86.668 38.207 86.5039 38.5352C86.3398 38.8867 86.1641 39.2266 85.9766 39.5547C85.9297 39.8125 85.8125 40.0586 85.625 40.293C85.4375 40.5273 85.2852 40.7852 85.168 41.0664C85.1211 41.1836 85.0625 41.2891 84.9922 41.3828C84.9219 41.5 84.8633 41.6172 84.8164 41.7344C84.7461 41.8516 84.6875 41.9688 84.6406 42.0859C84.5938 42.2031 84.5352 42.3203 84.4648 42.4375C84.418 42.4844 84.3711 42.5312 84.3242 42.5781C84.2773 42.6484 84.2305 42.707 84.1836 42.7539L83.7617 43.4922C83.5742 43.8906 83.3281 44.2188 83.0234 44.4766C82.7422 44.7578 82.4375 45.0625 82.1094 45.3906C81.9922 45.5078 81.8867 45.625 81.793 45.7422C81.7227 45.8594 81.6289 45.9766 81.5117 46.0938C81.3945 46.2109 81.2773 46.3164 81.1602 46.4102C81.043 46.5273 80.9258 46.6562 80.8086 46.7969C80.6211 46.8672 80.4688 46.9727 80.3516 47.1133C80.2344 47.2773 80.1172 47.4414 80 47.6055C79.9062 47.6523 79.8242 47.6992 79.7539 47.7461C79.707 47.8164 79.6367 47.875 79.543 47.9219C79.3555 47.9922 79.2383 48.0391 79.1914 48.0625C79.1445 48.1094 79.0977 48.1445 79.0508 48.168C78.8867 48.2617 78.7109 48.3086 78.5234 48.3086C78.3359 48.332 78.1719 48.4023 78.0312 48.5195C77.7969 48.5195 77.6328 48.4727 77.5391 48.3789C77.4219 48.2852 77.3164 48.1797 77.2227 48.0625C77.1055 47.8516 77.0586 47.6172 77.082 47.3594C77.082 47.1016 77.1172 46.832 77.1875 46.5508C77.2344 46.2695 77.293 45.9883 77.3633 45.707C77.4102 45.4492 77.4219 45.1914 77.3984 44.9336C77.5156 44.5586 77.5859 44.2422 77.6094 43.9844C77.6328 43.7266 77.6797 43.4922 77.75 43.2812C77.9141 43.0234 78.0078 42.8359 78.0312 42.7188C78.0547 42.6016 78.125 42.5195 78.2422 42.4727C78.2656 42.332 78.3008 42.2148 78.3477 42.1211C78.3945 42.0273 78.4297 41.9219 78.4531 41.8047C78.5234 41.7578 78.582 41.6992 78.6289 41.6289C78.6758 41.5586 78.7461 41.5 78.8398 41.4531C79.0742 40.9844 79.25 40.5859 79.3672 40.2578C79.5078 39.9297 79.6602 39.6016 79.8242 39.2734C79.8945 39.0859 79.9531 38.9102 80 38.7461C80.0469 38.582 80.1055 38.4297 80.1758 38.2891C80.293 38.0312 80.4453 37.7734 80.6328 37.5156C80.8438 37.2578 81.043 37 81.2305 36.7422C81.3945 36.5312 81.5 36.3789 81.5469 36.2852C81.6172 36.1914 81.6758 36.1094 81.7227 36.0391C81.9102 35.8984 81.9922 35.8047 81.9688 35.7578C81.9688 35.7344 81.9805 35.7227 82.0039 35.7227C82.1445 35.582 82.2852 35.4414 82.4258 35.3008C82.5898 35.1602 82.7539 35.0195 82.918 34.8789C83.0586 34.7148 83.1992 34.5625 83.3398 34.4219C83.4805 34.2812 83.6445 34.1523 83.832 34.0352C83.9727 33.8711 84.1133 33.7188 84.2539 33.5781C84.3945 33.4375 84.5586 33.3086 84.7461 33.1914C85.1211 32.9336 85.4609 32.6523 85.7656 32.3477C86.0703 32.0195 86.3984 31.7266 86.75 31.4688C86.7969 31.1406 86.8789 30.8477 86.9961 30.5898C87.1133 30.332 87.1953 30.0508 87.2422 29.7461C87.3359 29.582 87.418 29.3945 87.4883 29.1836C87.5586 28.9727 87.6172 28.7734 87.6641 28.5859C87.7344 28.5156 87.7812 28.4219 87.8047 28.3047C87.8516 28.1875 87.8984 28.0586 87.9453 27.918C88.0625 27.6836 88.1211 27.4844 88.1211 27.3203C88.1445 27.1797 88.1562 27.0625 88.1562 26.9688C88.1562 26.8516 88.1797 26.7227 88.2266 26.582C88.25 26.4648 88.2617 26.3008 88.2617 26.0898C88.0977 26.2305 87.9453 26.3945 87.8047 26.582C87.6875 26.7695 87.5703 26.9453 87.4531 27.1094C87.4062 27.1562 87.3477 27.2148 87.2773 27.2852C87.2305 27.332 87.1953 27.4141 87.1719 27.5312C87.0547 27.6719 86.9727 27.7539 86.9258 27.7773C86.8789 27.8008 86.8555 27.8359 86.8555 27.8828C86.3164 28.4922 85.7773 29.125 85.2383 29.7812C84.7227 30.4141 84.1953 31.0352 83.6562 31.6445C83.4453 31.832 83.2227 32.0195 82.9883 32.207C82.7539 32.3711 82.5078 32.5469 82.25 32.7344C82.0625 32.875 81.8398 33.0508 81.582 33.2617C81.3242 33.4492 81.0078 33.4844 80.6328 33.3672C80.0938 33.5781 79.6484 33.543 79.2969 33.2617C78.9688 32.957 78.7109 32.6289 78.5234 32.2773C78.4297 32.1367 78.3594 32.0195 78.3125 31.9258C78.2422 31.8086 78.2188 31.6211 78.2422 31.3633C78.2891 31.1055 78.3477 30.8477 78.418 30.5898C78.4883 30.3086 78.5469 30.0039 78.5938 29.6758C78.6406 29.418 78.6758 29.1602 78.6992 28.9023C78.7461 28.6445 78.8047 28.375 78.875 28.0938C78.9453 27.7656 79.0391 27.4492 79.1562 27.1445C79.2734 26.8398 79.4141 26.582 79.5781 26.3711C79.6953 26.0195 79.8008 25.6914 79.8945 25.3867C80.0117 25.0586 80.1289 24.7305 80.2461 24.4023C80.3633 24.0273 80.5039 23.6641 80.668 23.3125C80.832 22.9609 81.0078 22.6211 81.1953 22.293C81.3125 22.1289 81.418 21.9883 81.5117 21.8711C81.6289 21.7305 81.7461 21.5898 81.8633 21.4492C82.0977 21.4258 82.2852 21.3906 82.4258 21.3438C82.5664 21.2734 82.707 21.2031 82.8477 21.1328C83.0117 21.0859 83.1758 21.0508 83.3398 21.0273C83.5039 20.9805 83.6562 20.9336 83.7969 20.8867C84.0547 20.7695 84.2188 20.7227 84.2891 20.7461C84.3594 20.7461 84.418 20.7109 84.4648 20.6406C84.5117 20.7578 84.582 20.8398 84.6758 20.8867C84.7695 20.9102 84.8281 20.9805 84.8516 21.0977C84.8516 21.2617 84.7812 21.4609 84.6406 21.6953C84.5234 21.9297 84.4414 22.1055 84.3945 22.2227C84.3008 22.3867 84.207 22.5742 84.1133 22.7852C84.0195 22.9961 83.9141 23.1836 83.7969 23.3477C83.75 23.5586 83.6797 23.7695 83.5859 23.9805C83.5156 24.168 83.4453 24.3672 83.375 24.5781C83.1406 24.8359 82.9297 25.1289 82.7422 25.457C82.5781 25.7852 82.4023 26.1367 82.2148 26.5117C82.168 26.6289 82.1094 26.7344 82.0391 26.8281C81.9922 26.9219 81.9453 27.0273 81.8984 27.1445C81.8516 27.3555 81.8047 27.5664 81.7578 27.7773C81.7344 27.9883 81.6992 28.1992 81.6523 28.4102C81.6055 28.5273 81.5586 28.6562 81.5117 28.7969C81.4883 28.9141 81.4648 29.0547 81.4414 29.2188C81.3945 29.5469 81.3594 29.875 81.3359 30.2031C81.3125 30.5312 81.3008 30.8711 81.3008 31.2227ZM86.293 34.2461C85.8242 34.5508 85.4141 34.8789 85.0625 35.2305C84.7109 35.6055 84.3477 35.9805 83.9727 36.3555C83.8086 36.543 83.6445 36.7188 83.4805 36.8828C83.3164 37.0703 83.1641 37.2695 83.0234 37.4805C82.9062 37.6914 82.7773 37.9023 82.6367 38.1133C82.5195 38.3477 82.3672 38.5586 82.1797 38.7461C81.8984 39.0039 81.7227 39.2031 81.6523 39.3438C81.582 39.5078 81.5117 39.6484 81.4414 39.7656C81.3477 39.9531 81.2539 40.1289 81.1602 40.293C81.0898 40.4805 80.9961 40.6562 80.8789 40.8203C80.7617 41.0547 80.6562 41.2891 80.5625 41.5234C80.4688 41.7578 80.3633 41.9922 80.2461 42.2266C80.082 42.6484 79.9531 43.0469 79.8594 43.4219C79.7656 43.8203 79.7305 44.2188 79.7539 44.6172C79.7539 44.7109 79.7539 44.793 79.7539 44.8633C79.7539 44.957 79.7891 45.0273 79.8594 45.0742C79.9766 45.0742 80.1523 45.0273 80.3867 44.9336C80.5742 44.7695 80.75 44.6055 80.9141 44.4414C81.1016 44.2773 81.2773 44.1016 81.4414 43.9141C81.6289 43.7031 81.8047 43.5039 81.9688 43.3164C82.1328 43.1523 82.3086 42.9766 82.4961 42.7891C82.8242 42.4141 83.1172 42.0039 83.375 41.5586C83.6328 41.1367 83.8555 40.6562 84.043 40.1172C84.1836 39.8594 84.3008 39.5781 84.3945 39.2734C84.4883 38.9922 84.6055 38.7344 84.7461 38.5C85.0039 37.75 85.2734 37.0234 85.5547 36.3203C85.8359 35.6406 86.0938 34.9492 86.3281 34.2461H86.293Z" fill="#474672"/>
<defs>
<filter id="filter0_d_305_2077" x="1.99732" y="34.9921" width="32.1833" height="36.1727" filterUnits="userSpaceOnUse" color-interpolation-filters="sRGB">
<feFlood flood-opacity="0" result="BackgroundImageFix"/>
<feColorMatrix in="SourceAlpha" type="matrix" values="0 0 0 0 0 0 0 0 0 0 0 0 0 0 0 0 0 0 127 0" result="hardAlpha"/>
<feOffset dx="2" dy="2"/>
<feComposite in2="hardAlpha" operator="out"/>
<feColorMatrix type="matrix" values="0 0 0 0 0 0 0 0 0 0 0 0 0 0 0 0 0 0 0.25 0"/>
<feBlend mode="normal" in2="BackgroundImageFix" result="effect1_dropShadow_305_2077"/>
<feBlend mode="normal" in="SourceGraphic" in2="effect1_dropShadow_305_2077" result="shape"/>
</filter>
<filter id="filter1_d_305_2077" x="31.5942" y="35.3031" width="30.768" height="33.0517" filterUnits="userSpaceOnUse" color-interpolation-filters="sRGB">
<feFlood flood-opacity="0" result="BackgroundImageFix"/>
<feColorMatrix in="SourceAlpha" type="matrix" values="0 0 0 0 0 0 0 0 0 0 0 0 0 0 0 0 0 0 127 0" result="hardAlpha"/>
<feOffset dx="2" dy="2"/>
<feComposite in2="hardAlpha" operator="out"/>
<feColorMatrix type="matrix" values="0 0 0 0 0 0 0 0 0 0 0 0 0 0 0 0 0 0 0.25 0"/>
<feBlend mode="normal" in2="BackgroundImageFix" result="effect1_dropShadow_305_2077"/>
<feBlend mode="normal" in="SourceGraphic" in2="effect1_dropShadow_305_2077" result="shape"/>
</filter>
<filter id="filter2_d_305_2077" x="59.7733" y="35.721" width="33.4483" height="34.6227" filterUnits="userSpaceOnUse" color-interpolation-filters="sRGB">
<feFlood flood-opacity="0" result="BackgroundImageFix"/>
<feColorMatrix in="SourceAlpha" type="matrix" values="0 0 0 0 0 0 0 0 0 0 0 0 0 0 0 0 0 0 127 0" result="hardAlpha"/>
<feOffset dx="2" dy="2"/>
<feComposite in2="hardAlpha" operator="out"/>
<feColorMatrix type="matrix" values="0 0 0 0 0 0 0 0 0 0 0 0 0 0 0 0 0 0 0.25 0"/>
<feBlend mode="normal" in2="BackgroundImageFix" result="effect1_dropShadow_305_2077"/>
<feBlend mode="normal" in="SourceGraphic" in2="effect1_dropShadow_305_2077" result="shape"/>
</filter>
<filter id="filter3_d_305_2077" x="88.7292" y="40.6264" width="34.8152" height="37.3091" filterUnits="userSpaceOnUse" color-interpolation-filters="sRGB">
<feFlood flood-opacity="0" result="BackgroundImageFix"/>
<feColorMatrix in="SourceAlpha" type="matrix" values="0 0 0 0 0 0 0 0 0 0 0 0 0 0 0 0 0 0 127 0" result="hardAlpha"/>
<feOffset dx="2" dy="2"/>
<feComposite in2="hardAlpha" operator="out"/>
<feColorMatrix type="matrix" values="0 0 0 0 0 0 0 0 0 0 0 0 0 0 0 0 0 0 0.25 0"/>
<feBlend mode="normal" in2="BackgroundImageFix" result="effect1_dropShadow_305_2077"/>
<feBlend mode="normal" in="SourceGraphic" in2="effect1_dropShadow_305_2077" result="shape"/>
</filter>
</defs>
</svg>
