<svg width="338" height="175" viewBox="0 0 338 175" fill="none" xmlns="http://www.w3.org/2000/svg">
<path d="M37.2704 118.083C36.8004 116.433 35.1504 116.443 33.3604 115.303C30.7204 113.633 29.0304 114.513 29.0004 115.953C28.9704 117.393 30.7804 118.153 31.1304 119.623C31.5304 121.083 30.3104 122.623 31.0204 123.863C31.7304 125.103 33.6404 125.083 35.1604 122.363C36.1904 120.533 37.6504 119.773 37.2704 118.083Z" fill="#FBD97D"/>
<path d="M37.4603 113.773C36.4603 115.013 34.9503 115.473 34.1503 114.773C33.3503 114.073 33.5403 112.573 34.5703 111.333C35.6003 110.093 37.0803 109.623 37.8803 110.333C38.6803 111.043 38.5103 112.523 37.4603 113.773Z" fill="#FBD97D"/>
<path d="M39.5204 121.772C38.0204 121.172 36.5204 121.472 36.1104 122.432C35.7004 123.392 36.6304 124.662 38.1104 125.262C39.5904 125.862 41.1104 125.562 41.5204 124.602C41.9304 123.642 41.0104 122.372 39.5204 121.772Z" fill="#FBD97D"/>
<path d="M41.5704 116.533C40.0204 117.233 38.4004 116.993 37.9504 115.993C37.5004 114.993 38.3804 113.623 39.9504 112.923C41.5204 112.223 43.1204 112.463 43.5704 113.453C44.0204 114.443 43.1104 115.833 41.5704 116.533Z" fill="#FBD97D"/>
<path d="M41.7804 117.393C40.0904 117.513 38.7804 118.503 38.8604 119.593C38.9404 120.683 40.3804 121.473 42.0704 121.343C43.7604 121.213 45.0704 120.233 44.9904 119.143C44.9104 118.053 43.4604 117.273 41.7804 117.393Z" fill="#FBD97D"/>
<path d="M96.2704 81.0825C95.8004 79.4325 94.1504 79.4425 92.3604 78.3025C89.7204 76.6325 88.0304 77.5125 88.0004 78.9525C87.9704 80.3925 89.7804 81.1525 90.1304 82.6225C90.5304 84.0825 89.3104 85.6225 90.0204 86.8625C90.7304 88.1025 92.6404 88.0825 94.1604 85.3625C95.1904 83.5325 96.6504 82.7725 96.2704 81.0825Z" fill="#FBD97D"/>
<path d="M96.4603 76.7725C95.4603 78.0125 93.9503 78.4725 93.1503 77.7725C92.3503 77.0725 92.5403 75.5725 93.5703 74.3325C94.6003 73.0925 96.0803 72.6225 96.8803 73.3325C97.6803 74.0425 97.5103 75.5225 96.4603 76.7725Z" fill="#FBD97D"/>
<path d="M98.5204 84.7725C97.0204 84.1725 95.5204 84.4725 95.1104 85.4325C94.7004 86.3925 95.6304 87.6625 97.1104 88.2625C98.5904 88.8625 100.11 88.5625 100.52 87.6025C100.93 86.6425 100.01 85.3725 98.5204 84.7725Z" fill="#FBD97D"/>
<path d="M100.57 79.5325C99.0204 80.2325 97.4004 79.9925 96.9504 78.9925C96.5004 77.9925 97.3804 76.6225 98.9504 75.9225C100.52 75.2225 102.12 75.4625 102.57 76.4525C103.02 77.4425 102.11 78.8325 100.57 79.5325Z" fill="#FBD97D"/>
<path d="M100.78 80.3926C99.0904 80.5126 97.7804 81.5026 97.8604 82.5926C97.9404 83.6826 99.3804 84.4726 101.07 84.3426C102.76 84.2126 104.07 83.2326 103.99 82.1426C103.91 81.0526 102.46 80.2726 100.78 80.3926Z" fill="#FBD97D"/>
<path d="M171.27 90.0825C170.8 88.4325 169.15 88.4425 167.36 87.3025C164.72 85.6325 163.03 86.5125 163 87.9525C162.97 89.3925 164.78 90.1525 165.13 91.6225C165.53 93.0825 164.31 94.6225 165.02 95.8625C165.73 97.1025 167.64 97.0825 169.16 94.3625C170.19 92.5325 171.65 91.7725 171.27 90.0825Z" fill="#FBD97D"/>
<path d="M171.46 85.7725C170.46 87.0125 168.95 87.4725 168.15 86.7725C167.35 86.0725 167.54 84.5725 168.57 83.3325C169.6 82.0925 171.08 81.6225 171.88 82.3325C172.68 83.0425 172.51 84.5225 171.46 85.7725Z" fill="#FBD97D"/>
<path d="M173.52 93.7725C172.02 93.1725 170.52 93.4725 170.11 94.4325C169.7 95.3925 170.63 96.6625 172.11 97.2625C173.59 97.8625 175.11 97.5625 175.52 96.6025C175.93 95.6425 175.01 94.3725 173.52 93.7725Z" fill="#FBD97D"/>
<path d="M175.57 88.5325C174.02 89.2325 172.4 88.9925 171.95 87.9925C171.5 86.9925 172.38 85.6225 173.95 84.9225C175.52 84.2225 177.12 84.4625 177.57 85.4525C178.02 86.4425 177.11 87.8325 175.57 88.5325Z" fill="#FBD97D"/>
<path d="M175.78 89.3926C174.09 89.5126 172.78 90.5026 172.86 91.5926C172.94 92.6826 174.38 93.4726 176.07 93.3426C177.76 93.2126 179.07 92.2326 178.99 91.1426C178.91 90.0526 177.46 89.2726 175.78 89.3926Z" fill="#FBD97D"/>
<path d="M214.27 85.0825C213.8 83.4325 212.15 83.4425 210.36 82.3025C207.72 80.6325 206.03 81.5125 206 82.9525C205.97 84.3925 207.78 85.1525 208.13 86.6225C208.53 88.0825 207.31 89.6225 208.02 90.8625C208.73 92.1025 210.64 92.0825 212.16 89.3625C213.19 87.5325 214.65 86.7725 214.27 85.0825Z" fill="#FBD97D"/>
<path d="M214.46 80.7725C213.46 82.0125 211.95 82.4725 211.15 81.7725C210.35 81.0725 210.54 79.5725 211.57 78.3325C212.6 77.0925 214.08 76.6225 214.88 77.3325C215.68 78.0425 215.51 79.5225 214.46 80.7725Z" fill="#FBD97D"/>
<path d="M216.52 88.7725C215.02 88.1725 213.52 88.4725 213.11 89.4325C212.7 90.3925 213.63 91.6625 215.11 92.2625C216.59 92.8625 218.11 92.5625 218.52 91.6025C218.93 90.6425 218.01 89.3725 216.52 88.7725Z" fill="#FBD97D"/>
<path d="M218.57 83.5325C217.02 84.2325 215.4 83.9925 214.95 82.9925C214.5 81.9925 215.38 80.6225 216.95 79.9225C218.52 79.2225 220.12 79.4625 220.57 80.4525C221.02 81.4425 220.11 82.8325 218.57 83.5325Z" fill="#FBD97D"/>
<path d="M218.78 84.3926C217.09 84.5126 215.78 85.5026 215.86 86.5926C215.94 87.6826 217.38 88.4726 219.07 88.3426C220.76 88.2126 222.07 87.2326 221.99 86.1426C221.91 85.0526 220.46 84.2726 218.78 84.3926Z" fill="#FBD97D"/>
<path d="M226.27 54.0825C225.8 52.4325 224.15 52.4425 222.36 51.3025C219.72 49.6325 218.03 50.5125 218 51.9525C217.97 53.3925 219.78 54.1525 220.13 55.6225C220.53 57.0825 219.31 58.6225 220.02 59.8625C220.73 61.1025 222.64 61.0825 224.16 58.3625C225.19 56.5325 226.65 55.7725 226.27 54.0825Z" fill="#FBD97D"/>
<path d="M226.46 49.7725C225.46 51.0125 223.95 51.4725 223.15 50.7725C222.35 50.0725 222.54 48.5725 223.57 47.3325C224.6 46.0925 226.08 45.6225 226.88 46.3325C227.68 47.0425 227.51 48.5225 226.46 49.7725Z" fill="#FBD97D"/>
<path d="M228.52 57.7725C227.02 57.1725 225.52 57.4725 225.11 58.4325C224.7 59.3925 225.63 60.6625 227.11 61.2625C228.59 61.8625 230.11 61.5625 230.52 60.6025C230.93 59.6425 230.01 58.3725 228.52 57.7725Z" fill="#FBD97D"/>
<path d="M230.57 52.5325C229.02 53.2325 227.4 52.9925 226.95 51.9925C226.5 50.9925 227.38 49.6225 228.95 48.9225C230.52 48.2225 232.12 48.4625 232.57 49.4525C233.02 50.4425 232.11 51.8325 230.57 52.5325Z" fill="#FBD97D"/>
<path d="M230.78 53.3926C229.09 53.5126 227.78 54.5026 227.86 55.5926C227.94 56.6826 229.38 57.4726 231.07 57.3426C232.76 57.2126 234.07 56.2326 233.99 55.1426C233.91 54.0526 232.46 53.2726 230.78 53.3926Z" fill="#FBD97D"/>
<path d="M291.27 28.0825C290.8 26.4325 289.15 26.4425 287.36 25.3025C284.72 23.6325 283.03 24.5125 283 25.9525C282.97 27.3925 284.78 28.1525 285.13 29.6225C285.53 31.0825 284.31 32.6225 285.02 33.8625C285.73 35.1025 287.64 35.0825 289.16 32.3625C290.19 30.5325 291.65 29.7725 291.27 28.0825Z" fill="#FBD97D"/>
<path d="M291.46 23.7725C290.46 25.0125 288.95 25.4725 288.15 24.7725C287.35 24.0725 287.54 22.5725 288.57 21.3325C289.6 20.0925 291.08 19.6225 291.88 20.3325C292.68 21.0425 292.51 22.5225 291.46 23.7725Z" fill="#FBD97D"/>
<path d="M293.52 31.7725C292.02 31.1725 290.52 31.4725 290.11 32.4325C289.7 33.3925 290.63 34.6625 292.11 35.2625C293.59 35.8625 295.11 35.5625 295.52 34.6025C295.93 33.6425 295.01 32.3725 293.52 31.7725Z" fill="#FBD97D"/>
<path d="M295.57 26.5325C294.02 27.2325 292.4 26.9925 291.95 25.9925C291.5 24.9925 292.38 23.6225 293.95 22.9225C295.52 22.2225 297.12 22.4625 297.57 23.4525C298.02 24.4425 297.11 25.8325 295.57 26.5325Z" fill="#FBD97D"/>
<path d="M295.78 27.3926C294.09 27.5126 292.78 28.5026 292.86 29.5926C292.94 30.6826 294.38 31.4726 296.07 31.3426C297.76 31.2126 299.07 30.2326 298.99 29.1426C298.91 28.0526 297.46 27.2726 295.78 27.3926Z" fill="#FBD97D"/>
<path d="M296.27 1.08253C295.8 -0.567466 294.15 -0.557465 292.36 -1.69746C289.72 -3.36746 288.03 -2.48747 288 -1.04747C287.97 0.392535 289.78 1.15254 290.13 2.62254C290.53 4.08254 289.31 5.62253 290.02 6.86253C290.73 8.10253 292.64 8.08254 294.16 5.36253C295.19 3.53253 296.65 2.77253 296.27 1.08253Z" fill="#FBD97D"/>
<path d="M298.52 4.77249C297.02 4.17249 295.52 4.47249 295.11 5.43249C294.7 6.39249 295.63 7.66249 297.11 8.26249C298.59 8.86249 300.11 8.56249 300.52 7.60249C300.93 6.64249 300.01 5.37249 298.52 4.77249Z" fill="#FBD97D"/>
<path d="M300.57 -0.467456C299.02 0.232544 297.4 -0.00745678 296.95 -1.00746C296.5 -2.00746 297.38 -3.37746 298.95 -4.07746C300.52 -4.77746 302.12 -4.53746 302.57 -3.54746C303.02 -2.55746 302.11 -1.16746 300.57 -0.467456Z" fill="#FBD97D"/>
<path d="M300.78 0.392552C299.09 0.512552 297.78 1.50255 297.86 2.59255C297.94 3.68255 299.38 4.47255 301.07 4.34255C302.76 4.21255 304.07 3.23255 303.99 2.14255C303.91 1.05255 302.46 0.272552 300.78 0.392552Z" fill="#FBD97D"/>
<path d="M251.27 4.08253C250.8 2.43253 249.15 2.44254 247.36 1.30254C244.72 -0.367465 243.03 0.512535 243 1.95253C242.97 3.39253 244.78 4.15254 245.13 5.62254C245.53 7.08254 244.31 8.62253 245.02 9.86253C245.73 11.1025 247.64 11.0825 249.16 8.36253C250.19 6.53253 251.65 5.77253 251.27 4.08253Z" fill="#FBD97D"/>
<path d="M251.46 -0.227453C250.46 1.01255 248.95 1.47255 248.15 0.772547C247.35 0.0725468 247.54 -1.42745 248.57 -2.66745C249.6 -3.90745 251.08 -4.37745 251.88 -3.66745C252.68 -2.95745 252.51 -1.47745 251.46 -0.227453Z" fill="#FBD97D"/>
<path d="M253.52 7.77249C252.02 7.17249 250.52 7.47249 250.11 8.43249C249.7 9.39249 250.63 10.6625 252.11 11.2625C253.59 11.8625 255.11 11.5625 255.52 10.6025C255.93 9.64249 255.01 8.37249 253.52 7.77249Z" fill="#FBD97D"/>
<path d="M255.57 2.53254C254.02 3.23254 252.4 2.99254 251.95 1.99254C251.5 0.992543 252.38 -0.377456 253.95 -1.07746C255.52 -1.77746 257.12 -1.53746 257.57 -0.547456C258.02 0.442544 257.11 1.83254 255.57 2.53254Z" fill="#FBD97D"/>
<path d="M255.78 3.39255C254.09 3.51255 252.78 4.50255 252.86 5.59255C252.94 6.68255 254.38 7.47255 256.07 7.34255C257.76 7.21255 259.07 6.23255 258.99 5.14255C258.91 4.05255 257.46 3.27255 255.78 3.39255Z" fill="#FBD97D"/>
<path d="M12.2704 167.083C11.8004 165.433 10.1504 165.443 8.36037 164.303C5.72037 162.633 4.03037 163.513 4.00037 164.953C3.97037 166.393 5.78037 167.153 6.13037 168.623C6.53037 170.083 5.31037 171.623 6.02037 172.863C6.73037 174.103 8.64037 174.083 10.1604 171.363C11.1904 169.533 12.6504 168.773 12.2704 167.083Z" fill="#FBD97D"/>
<path d="M12.4603 162.773C11.4603 164.013 9.95035 164.473 9.15035 163.773C8.35035 163.073 8.54035 161.573 9.57035 160.333C10.6003 159.093 12.0803 158.623 12.8803 159.333C13.6803 160.043 13.5103 161.523 12.4603 162.773Z" fill="#FBD97D"/>
<path d="M14.5204 170.772C13.0204 170.172 11.5204 170.472 11.1104 171.432C10.7004 172.392 11.6304 173.662 13.1104 174.262C14.5904 174.862 16.1104 174.562 16.5204 173.602C16.9304 172.642 16.0104 171.372 14.5204 170.772Z" fill="#FBD97D"/>
<path d="M16.5704 165.533C15.0204 166.233 13.4004 165.993 12.9504 164.993C12.5004 163.993 13.3804 162.623 14.9504 161.923C16.5204 161.223 18.1204 161.463 18.5704 162.453C19.0204 163.443 18.1104 164.833 16.5704 165.533Z" fill="#FBD97D"/>
<path d="M16.7804 166.393C15.0904 166.513 13.7804 167.503 13.8604 168.593C13.9404 169.683 15.3804 170.473 17.0704 170.343C18.7604 170.213 20.0704 169.233 19.9904 168.143C19.9104 167.053 18.4604 166.273 16.7804 166.393Z" fill="#FBD97D"/>
<path d="M54.3419 93.1568C53.7542 91.0935 51.6909 91.106 49.4526 89.6805C46.1513 87.5922 44.038 88.6926 44.0005 90.4933C43.9629 92.294 46.2263 93.2443 46.664 95.0826C47.1642 96.9083 45.6386 98.834 46.5264 100.385C47.4143 101.935 49.8027 101.91 51.7034 98.5089C52.9914 96.2205 54.8171 95.2701 54.3419 93.1568Z" fill="#FBD97D"/>
<path d="M54.5795 87.7672C53.329 89.3178 51.4408 89.8931 50.4404 89.0177C49.44 88.1424 49.6776 86.2667 50.9656 84.7161C52.2536 83.1655 54.1043 82.5777 55.1047 83.4656C56.1051 84.3534 55.8925 86.2041 54.5795 87.7672Z" fill="#FBD97D"/>
<path d="M57.1555 97.771C55.2798 97.0207 53.4041 97.3959 52.8914 98.5964C52.3787 99.7968 53.5416 101.385 55.3923 102.135C57.2431 102.886 59.1438 102.51 59.6565 101.31C60.1692 100.109 59.0187 98.5213 57.1555 97.771Z" fill="#FBD97D"/>
<path d="M59.719 91.2186C57.7807 92.0939 55.755 91.7938 55.1922 90.5433C54.6295 89.2928 55.73 87.5797 57.6932 86.7043C59.6565 85.829 61.6572 86.1291 62.22 87.3671C62.7827 88.6051 61.6447 90.3432 59.719 91.2186Z" fill="#FBD97D"/>
<path d="M59.9816 92.294C57.8683 92.4441 56.2301 93.682 56.3302 95.0451C56.4302 96.4081 58.2309 97.396 60.3442 97.2334C62.4575 97.0708 64.0957 95.8454 63.9956 94.4823C63.8956 93.1193 62.0824 92.1439 59.9816 92.294Z" fill="#FBD97D"/>
<path d="M257.342 72.1071C256.754 70.0438 254.691 70.0563 252.453 68.6307C249.151 66.5424 247.038 67.6428 247 69.4435C246.963 71.2442 249.226 72.1946 249.664 74.0328C250.164 75.8585 248.639 77.7843 249.526 79.3349C250.414 80.8855 252.803 80.8604 254.703 77.4591C255.991 75.1708 257.817 74.2204 257.342 72.1071Z" fill="#FBD97D"/>
<path d="M257.58 66.7175C256.329 68.2681 254.441 68.8433 253.44 67.968C252.44 67.0926 252.678 65.2169 253.966 63.6663C255.254 62.1157 257.104 61.528 258.105 62.4158C259.105 63.3037 258.893 65.1544 257.58 66.7175Z" fill="#FBD97D"/>
<path d="M260.156 76.7213C258.28 75.971 256.404 76.3461 255.891 77.5466C255.379 78.7471 256.542 80.3352 258.392 81.0855C260.243 81.8358 262.144 81.4606 262.656 80.2602C263.169 79.0597 262.019 77.4716 260.156 76.7213Z" fill="#FBD97D"/>
<path d="M262.719 70.1688C260.781 71.0442 258.755 70.7441 258.192 69.4936C257.63 68.2431 258.73 66.5299 260.693 65.6546C262.656 64.7793 264.657 65.0794 265.22 66.3174C265.783 67.5553 264.645 69.2935 262.719 70.1688Z" fill="#FBD97D"/>
<path d="M262.982 71.2443C260.868 71.3943 259.23 72.6323 259.33 73.9953C259.43 75.3583 261.231 76.3462 263.344 76.1837C265.458 76.0211 267.096 74.7956 266.996 73.4326C266.896 72.0696 265.082 71.0942 262.982 71.2443Z" fill="#FBD97D"/>
<path d="M333.342 44.1071C332.754 42.0438 330.691 42.0563 328.453 40.6307C325.151 38.5424 323.038 39.6428 323 41.4435C322.963 43.2442 325.226 44.1946 325.664 46.0328C326.164 47.8585 324.639 49.7843 325.526 51.3349C326.414 52.8855 328.803 52.8604 330.703 49.4591C331.991 47.1708 333.817 46.2204 333.342 44.1071Z" fill="#FBD97D"/>
<path d="M333.58 38.7175C332.329 40.2681 330.441 40.8433 329.44 39.968C328.44 39.0926 328.678 37.2169 329.966 35.6663C331.254 34.1157 333.104 33.528 334.105 34.4158C335.105 35.3037 334.893 37.1544 333.58 38.7175Z" fill="#FBD97D"/>
<path d="M336.156 48.7213C334.28 47.971 332.404 48.3461 331.891 49.5466C331.379 50.7471 332.542 52.3352 334.392 53.0855C336.243 53.8358 338.144 53.4606 338.656 52.2602C339.169 51.0597 338.019 49.4716 336.156 48.7213Z" fill="#FBD97D"/>
<path d="M338.719 42.1688C336.781 43.0442 334.755 42.7441 334.192 41.4936C333.63 40.2431 334.73 38.5299 336.693 37.6546C338.656 36.7793 340.657 37.0794 341.22 38.3174C341.783 39.5553 340.645 41.2935 338.719 42.1688Z" fill="#FBD97D"/>
<path d="M338.982 43.2443C336.868 43.3943 335.23 44.6323 335.33 45.9953C335.43 47.3583 337.231 48.3462 339.344 48.1837C341.458 48.0211 343.096 46.7956 342.996 45.4326C342.896 44.0696 341.082 43.0942 338.982 43.2443Z" fill="#FBD97D"/>
<path d="M189.342 39.1071C188.754 37.0438 186.691 37.0563 184.453 35.6307C181.151 33.5424 179.038 34.6428 179 36.4435C178.963 38.2442 181.226 39.1946 181.664 41.0328C182.164 42.8585 180.639 44.7843 181.526 46.3349C182.414 47.8855 184.803 47.8604 186.703 44.4591C187.991 42.1708 189.817 41.2204 189.342 39.1071Z" fill="#FBD97D"/>
<path d="M189.58 33.7175C188.329 35.2681 186.441 35.8433 185.44 34.968C184.44 34.0926 184.678 32.2169 185.966 30.6663C187.254 29.1157 189.104 28.528 190.105 29.4158C191.105 30.3037 190.893 32.1544 189.58 33.7175Z" fill="#FBD97D"/>
<path d="M192.156 43.7213C190.28 42.971 188.404 43.3461 187.891 44.5466C187.379 45.7471 188.542 47.3352 190.392 48.0855C192.243 48.8358 194.144 48.4606 194.657 47.2602C195.169 46.0597 194.019 44.4716 192.156 43.7213Z" fill="#FBD97D"/>
<path d="M194.719 37.1688C192.781 38.0442 190.755 37.7441 190.192 36.4936C189.63 35.2431 190.73 33.5299 192.693 32.6546C194.656 31.7793 196.657 32.0794 197.22 33.3174C197.783 34.5553 196.645 36.2935 194.719 37.1688Z" fill="#FBD97D"/>
<path d="M194.982 38.2443C192.868 38.3943 191.23 39.6323 191.33 40.9953C191.43 42.3583 193.231 43.3462 195.344 43.1837C197.458 43.0211 199.096 41.7956 198.996 40.4326C198.896 39.0696 197.082 38.0942 194.982 38.2443Z" fill="#FBD97D"/>
<path d="M153.342 27.1071C152.754 25.0438 150.691 25.0563 148.453 23.6307C145.151 21.5424 143.038 22.6428 143 24.4435C142.963 26.2442 145.226 27.1946 145.664 29.0328C146.164 30.8585 144.639 32.7843 145.526 34.3349C146.414 35.8855 148.803 35.8604 150.703 32.4591C151.991 30.1708 153.817 29.2204 153.342 27.1071Z" fill="#FBD97D"/>
<path d="M153.58 21.7175C152.329 23.2681 150.441 23.8433 149.44 22.968C148.44 22.0926 148.678 20.2169 149.966 18.6663C151.254 17.1157 153.104 16.528 154.105 17.4158C155.105 18.3037 154.893 20.1544 153.58 21.7175Z" fill="#FBD97D"/>
<path d="M156.156 31.7213C154.28 30.971 152.404 31.3461 151.891 32.5466C151.379 33.7471 152.542 35.3352 154.392 36.0855C156.243 36.8358 158.144 36.4606 158.657 35.2602C159.169 34.0597 158.019 32.4716 156.156 31.7213Z" fill="#FBD97D"/>
<path d="M158.719 25.1688C156.781 26.0442 154.755 25.7441 154.192 24.4936C153.63 23.2431 154.73 21.5299 156.693 20.6546C158.656 19.7793 160.657 20.0794 161.22 21.3174C161.783 22.5553 160.645 24.2935 158.719 25.1688Z" fill="#FBD97D"/>
<path d="M158.982 26.2443C156.868 26.3943 155.23 27.6323 155.33 28.9953C155.43 30.3583 157.231 31.3462 159.344 31.1837C161.458 31.0211 163.096 29.7956 162.996 28.4326C162.896 27.0696 161.082 26.0942 158.982 26.2443Z" fill="#FBD97D"/>
<path d="M182.342 3.10707C181.754 1.04377 179.691 1.05628 177.453 -0.369272C174.151 -2.45758 172.038 -1.35715 172 0.443541C171.963 2.24424 174.226 3.1946 174.664 5.03281C175.164 6.85852 173.639 8.78426 174.526 10.3349C175.414 11.8855 177.803 11.8604 179.703 8.45913C180.991 6.17075 182.817 5.22038 182.342 3.10707Z" fill="#FBD97D"/>
<path d="M185.156 7.72129C183.28 6.971 181.404 7.34614 180.891 8.54661C180.379 9.74707 181.542 11.3352 183.392 12.0855C185.243 12.8358 187.144 12.4606 187.657 11.2602C188.169 10.0597 187.019 8.47158 185.156 7.72129Z" fill="#FBD97D"/>
<path d="M187.719 1.16884C185.781 2.04417 183.755 1.74406 183.192 0.493574C182.63 -0.756908 183.73 -2.47007 185.693 -3.34541C187.656 -4.22074 189.657 -3.92063 190.22 -2.68265C190.783 -1.44467 189.645 0.293498 187.719 1.16884Z" fill="#FBD97D"/>
<path d="M187.982 2.24425C185.868 2.39431 184.23 3.63228 184.33 4.99531C184.43 6.35834 186.231 7.34622 188.344 7.18365C190.458 7.02109 192.096 5.79562 191.996 4.4326C191.896 3.06957 190.082 2.09419 187.982 2.24425Z" fill="#FBD97D"/>
<path d="M69.2283 114.748C68.8359 113.37 67.4585 113.378 65.9641 112.427C63.7602 111.033 62.3493 111.767 62.3243 112.969C62.2992 114.171 63.8102 114.806 64.1024 116.033C64.4364 117.252 63.4179 118.538 64.0106 119.573C64.6033 120.608 66.1979 120.591 67.4668 118.321C68.3267 116.793 69.5455 116.158 69.2283 114.748Z" fill="#FBD97D"/>
<path d="M69.3869 111.149C68.5521 112.185 67.2915 112.569 66.6236 111.984C65.9557 111.4 66.1144 110.148 66.9742 109.112C67.8341 108.077 69.0697 107.685 69.7375 108.278C70.4054 108.87 70.2635 110.106 69.3869 111.149Z" fill="#FBD97D"/>
<path d="M71.1067 117.828C69.8544 117.327 68.6022 117.578 68.2599 118.379C67.9176 119.18 68.694 120.241 69.9295 120.742C71.1651 121.242 72.434 120.992 72.7763 120.191C73.1186 119.389 72.3506 118.329 71.1067 117.828Z" fill="#FBD97D"/>
<path d="M72.8181 113.454C71.5241 114.038 70.1716 113.838 69.796 113.003C69.4203 112.168 70.1549 111.024 71.4656 110.44C72.7763 109.855 74.112 110.056 74.4877 110.882C74.8634 111.709 74.1037 112.869 72.8181 113.454Z" fill="#FBD97D"/>
<path d="M72.9934 114.172C71.5825 114.272 70.4889 115.098 70.5557 116.008C70.6225 116.918 71.8246 117.578 73.2355 117.469C74.6463 117.361 75.74 116.542 75.6732 115.632C75.6064 114.723 74.3959 114.071 72.9934 114.172Z" fill="#FBD97D"/>
<path d="M55.9044 135.748C55.512 134.37 54.1345 134.378 52.6402 133.427C50.4362 132.033 49.0254 132.767 49.0003 133.969C48.9753 135.171 50.4863 135.806 50.7785 137.033C51.1124 138.252 50.0939 139.538 50.6867 140.573C51.2794 141.608 52.8739 141.591 54.1429 139.321C55.0027 137.793 56.2216 137.158 55.9044 135.748Z" fill="#FBD97D"/>
<path d="M56.0629 132.149C55.2281 133.185 53.9675 133.569 53.2997 132.984C52.6318 132.4 52.7904 131.148 53.6503 130.112C54.5102 129.077 55.7457 128.685 56.4136 129.278C57.0814 129.87 56.9395 131.106 56.0629 132.149Z" fill="#FBD97D"/>
<path d="M57.7827 138.828C56.5305 138.327 55.2782 138.578 54.9359 139.379C54.5937 140.18 55.3701 141.241 56.6056 141.742C57.8411 142.242 59.1101 141.992 59.4524 141.191C59.7947 140.389 59.0266 139.329 57.7827 138.828Z" fill="#FBD97D"/>
<path d="M59.4941 134.454C58.2001 135.038 56.8477 134.838 56.472 134.003C56.0963 133.168 56.831 132.024 58.1417 131.44C59.4524 130.855 60.7881 131.056 61.1638 131.882C61.5394 132.709 60.7797 133.869 59.4941 134.454Z" fill="#FBD97D"/>
<path d="M59.6694 135.172C58.2586 135.272 57.1649 136.098 57.2317 137.008C57.2985 137.918 58.5007 138.578 59.9115 138.469C61.3224 138.361 62.416 137.542 62.3492 136.632C62.2824 135.723 61.0719 135.071 59.6694 135.172Z" fill="#FBD97D"/>
<path d="M42.5804 156.748C42.188 155.37 40.8106 155.378 39.3162 154.427C37.1123 153.033 35.7014 153.767 35.6764 154.969C35.6513 156.171 37.1624 156.806 37.4546 158.033C37.7885 159.252 36.77 160.538 37.3627 161.573C37.9554 162.608 39.55 162.591 40.8189 160.321C41.6788 158.793 42.8976 158.158 42.5804 156.748Z" fill="#FBD97D"/>
<path d="M42.739 153.149C41.9042 154.185 40.6436 154.569 39.9757 153.984C39.3079 153.4 39.4665 152.148 40.3263 151.112C41.1862 150.077 42.4218 149.685 43.0896 150.278C43.7575 150.87 43.6156 152.106 42.739 153.149Z" fill="#FBD97D"/>
<path d="M44.4588 159.828C43.2065 159.327 41.9543 159.578 41.612 160.379C41.2697 161.18 42.0461 162.241 43.2817 162.742C44.5172 163.242 45.7861 162.992 46.1284 162.191C46.4707 161.389 45.7027 160.329 44.4588 159.828Z" fill="#FBD97D"/>
<path d="M46.1702 155.454C44.8762 156.038 43.5238 155.838 43.1481 155.003C42.7724 154.168 43.5071 153.024 44.8177 152.44C46.1284 151.855 47.4641 152.056 47.8398 152.882C48.2155 153.709 47.4558 154.869 46.1702 155.454Z" fill="#FBD97D"/>
<path d="M46.3455 156.172C44.9346 156.272 43.841 157.098 43.9078 158.008C43.9746 158.918 45.1767 159.578 46.5876 159.469C47.9984 159.361 49.0921 158.542 49.0253 157.632C48.9585 156.723 47.748 156.071 46.3455 156.172Z" fill="#FBD97D"/>
<path d="M6.90435 137.748C6.51198 136.37 5.13451 136.378 3.64017 135.427C1.43621 134.033 0.0253527 134.767 0.000307765 135.969C-0.0247371 137.171 1.48631 137.806 1.7785 139.033C2.11243 140.252 1.09394 141.538 1.68666 142.573C2.27939 143.608 3.87392 143.591 5.14286 141.321C6.00274 139.793 7.22159 139.158 6.90435 137.748Z" fill="#FBD97D"/>
<path d="M7.06295 134.149C6.22812 135.185 4.96752 135.569 4.29966 134.984C3.6318 134.4 3.79041 133.148 4.65029 132.112C5.51016 131.077 6.74571 130.685 7.41358 131.278C8.08144 131.87 7.93952 133.106 7.06295 134.149Z" fill="#FBD97D"/>
<path d="M8.78271 140.828C7.53047 140.327 6.27822 140.578 5.93594 141.379C5.59366 142.18 6.37005 143.241 7.6056 143.742C8.84115 144.242 10.1101 143.992 10.4524 143.191C10.7947 142.389 10.0266 141.329 8.78271 140.828Z" fill="#FBD97D"/>
<path d="M10.4941 136.454C9.20012 137.038 7.84769 136.838 7.47202 136.003C7.09635 135.168 7.831 134.024 9.14168 133.44C10.4524 132.855 11.7881 133.056 12.1638 133.882C12.5394 134.709 11.7797 135.869 10.4941 136.454Z" fill="#FBD97D"/>
<path d="M10.6694 137.172C9.25856 137.272 8.16494 138.098 8.23172 139.008C8.29851 139.918 9.50067 140.578 10.9115 140.469C12.3224 140.361 13.416 139.542 13.3492 138.632C13.2824 137.723 12.0719 137.071 10.6694 137.172Z" fill="#FBD97D"/>
<path d="M185.904 63.7475C185.512 62.3701 184.135 62.3784 182.64 61.4267C180.436 60.0325 179.025 60.7672 179 61.9693C178.975 63.1715 180.486 63.806 180.778 65.0332C181.112 66.252 180.094 67.5377 180.687 68.5729C181.279 69.608 182.874 69.5913 184.143 67.3206C185.003 65.7929 186.222 65.1584 185.904 63.7475Z" fill="#FBD97D"/>
<path d="M186.063 60.1494C185.228 61.1846 183.968 61.5686 183.3 60.9843C182.632 60.3999 182.79 59.1476 183.65 58.1124C184.51 57.0773 185.746 56.6849 186.414 57.2776C187.081 57.8703 186.94 59.1059 186.063 60.1494Z" fill="#FBD97D"/>
<path d="M187.783 66.828C186.53 66.3271 185.278 66.5776 184.936 67.379C184.594 68.1805 185.37 69.2407 186.606 69.7416C187.841 70.2425 189.11 69.992 189.452 69.1906C189.795 68.3892 189.027 67.3289 187.783 66.828Z" fill="#FBD97D"/>
<path d="M189.494 62.4536C188.2 63.0379 186.848 62.8376 186.472 62.0028C186.096 61.1679 186.831 60.0242 188.142 59.4398C189.452 58.8554 190.788 59.0558 191.164 59.8823C191.539 60.7088 190.78 61.8692 189.494 62.4536Z" fill="#FBD97D"/>
<path d="M189.669 63.1715C188.259 63.2717 187.165 64.0982 187.232 65.0082C187.298 65.9181 188.501 66.5776 189.912 66.4691C191.322 66.3606 192.416 65.5424 192.349 64.6325C192.282 63.7225 191.072 63.0714 189.669 63.1715Z" fill="#FBD97D"/>
<path d="M156.904 52.7475C156.512 51.3701 155.135 51.3784 153.64 50.4267C151.436 49.0325 150.025 49.7672 150 50.9693C149.975 52.1715 151.486 52.806 151.778 54.0332C152.112 55.252 151.094 56.5377 151.687 57.5729C152.279 58.608 153.874 58.5913 155.143 56.3206C156.003 54.7929 157.222 54.1584 156.904 52.7475Z" fill="#FBD97D"/>
<path d="M157.063 49.1494C156.228 50.1846 154.968 50.5686 154.3 49.9843C153.632 49.3999 153.79 48.1476 154.65 47.1124C155.51 46.0773 156.746 45.6849 157.414 46.2776C158.081 46.8703 157.94 48.1059 157.063 49.1494Z" fill="#FBD97D"/>
<path d="M158.783 55.828C157.53 55.3271 156.278 55.5776 155.936 56.379C155.594 57.1805 156.37 58.2407 157.606 58.7416C158.841 59.2425 160.11 58.992 160.452 58.1906C160.795 57.3892 160.027 56.3289 158.783 55.828Z" fill="#FBD97D"/>
<path d="M160.494 51.4536C159.2 52.0379 157.848 51.8376 157.472 51.0028C157.096 50.1679 157.831 49.0242 159.142 48.4398C160.452 47.8554 161.788 48.0558 162.164 48.8823C162.539 49.7088 161.78 50.8692 160.494 51.4536Z" fill="#FBD97D"/>
<path d="M160.669 52.1715C159.259 52.2717 158.165 53.0982 158.232 54.0082C158.298 54.9181 159.501 55.5776 160.912 55.4691C162.322 55.3606 163.416 54.5424 163.349 53.6325C163.282 52.7225 162.072 52.0714 160.669 52.1715Z" fill="#FBD97D"/>
<path d="M267.904 45.7475C267.512 44.3701 266.135 44.3784 264.64 43.4267C262.436 42.0325 261.025 42.7672 261 43.9693C260.975 45.1715 262.486 45.806 262.778 47.0332C263.112 48.252 262.094 49.5377 262.687 50.5729C263.279 51.608 264.874 51.5913 266.143 49.3206C267.003 47.7929 268.222 47.1584 267.904 45.7475Z" fill="#FBD97D"/>
<path d="M268.063 42.1494C267.228 43.1846 265.968 43.5686 265.3 42.9843C264.632 42.3999 264.79 41.1476 265.65 40.1124C266.51 39.0773 267.746 38.6849 268.414 39.2776C269.081 39.8703 268.94 41.1059 268.063 42.1494Z" fill="#FBD97D"/>
<path d="M269.783 48.828C268.53 48.3271 267.278 48.5776 266.936 49.379C266.594 50.1805 267.37 51.2407 268.606 51.7416C269.841 52.2425 271.11 51.992 271.452 51.1906C271.795 50.3892 271.027 49.3289 269.783 48.828Z" fill="#FBD97D"/>
<path d="M271.494 44.4536C270.2 45.0379 268.848 44.8376 268.472 44.0028C268.096 43.1679 268.831 42.0242 270.142 41.4398C271.452 40.8554 272.788 41.0558 273.164 41.8823C273.539 42.7088 272.78 43.8692 271.494 44.4536Z" fill="#FBD97D"/>
<path d="M271.669 45.1715C270.259 45.2717 269.165 46.0982 269.232 47.0082C269.299 47.9181 270.501 48.5776 271.912 48.4691C273.322 48.3606 274.416 47.5424 274.349 46.6325C274.282 45.7225 273.072 45.0714 271.669 45.1715Z" fill="#FBD97D"/>
<path d="M214.904 18.7475C214.512 17.3701 213.135 17.3784 211.64 16.4267C209.436 15.0325 208.025 15.7672 208 16.9693C207.975 18.1715 209.486 18.806 209.778 20.0332C210.112 21.252 209.094 22.5377 209.687 23.5729C210.279 24.608 211.874 24.5913 213.143 22.3206C214.003 20.7929 215.222 20.1584 214.904 18.7475Z" fill="#FBD97D"/>
<path d="M215.063 15.1494C214.228 16.1846 212.968 16.5686 212.3 15.9843C211.632 15.3999 211.79 14.1476 212.65 13.1124C213.51 12.0773 214.746 11.6849 215.414 12.2776C216.081 12.8703 215.94 14.1059 215.063 15.1494Z" fill="#FBD97D"/>
<path d="M216.783 21.828C215.53 21.3271 214.278 21.5776 213.936 22.379C213.594 23.1805 214.37 24.2407 215.606 24.7416C216.841 25.2425 218.11 24.992 218.452 24.1906C218.795 23.3892 218.027 22.3289 216.783 21.828Z" fill="#FBD97D"/>
<path d="M218.494 17.4536C217.2 18.0379 215.848 17.8376 215.472 17.0028C215.096 16.1679 215.831 15.0242 217.142 14.4398C218.452 13.8554 219.788 14.0558 220.164 14.8823C220.539 15.7088 219.78 16.8692 218.494 17.4536Z" fill="#FBD97D"/>
<path d="M218.669 18.1715C217.259 18.2717 216.165 19.0982 216.232 20.0082C216.298 20.9181 217.501 21.5776 218.912 21.4691C220.322 21.3606 221.416 20.5424 221.349 19.6325C221.282 18.7225 220.072 18.0714 218.669 18.1715Z" fill="#FBD97D"/>
<path d="M118.904 55.7475C118.512 54.3701 117.135 54.3784 115.64 53.4267C113.436 52.0325 112.025 52.7672 112 53.9693C111.975 55.1715 113.486 55.806 113.779 57.0332C114.112 58.252 113.094 59.5377 113.687 60.5729C114.279 61.608 115.874 61.5913 117.143 59.3206C118.003 57.7929 119.222 57.1584 118.904 55.7475Z" fill="#FBD97D"/>
<path d="M119.063 52.1494C118.228 53.1846 116.968 53.5686 116.3 52.9843C115.632 52.3999 115.79 51.1476 116.65 50.1124C117.51 49.0773 118.746 48.6849 119.414 49.2776C120.081 49.8703 119.94 51.1059 119.063 52.1494Z" fill="#FBD97D"/>
<path d="M120.783 58.828C119.53 58.3271 118.278 58.5776 117.936 59.379C117.594 60.1805 118.37 61.2407 119.606 61.7416C120.841 62.2425 122.11 61.992 122.452 61.1906C122.795 60.3892 122.027 59.3289 120.783 58.828Z" fill="#FBD97D"/>
<path d="M122.494 54.4536C121.2 55.0379 119.848 54.8376 119.472 54.0028C119.096 53.1679 119.831 52.0242 121.142 51.4398C122.452 50.8554 123.788 51.0558 124.164 51.8823C124.539 52.7088 123.78 53.8692 122.494 54.4536Z" fill="#FBD97D"/>
<path d="M122.669 55.1715C121.259 55.2717 120.165 56.0982 120.232 57.0082C120.299 57.9181 121.501 58.5776 122.912 58.4691C124.322 58.3606 125.416 57.5424 125.349 56.6325C125.282 55.7225 124.072 55.0714 122.669 55.1715Z" fill="#FBD97D"/>
</svg>
